<svg width="21" height="17" viewBox="0 0 21 17" fill="none" xmlns="http://www.w3.org/2000/svg">
<path d="M13.7089 9.38982L13.7089 9.38982C13.6805 9.48672 13.6726 9.64513 13.6865 9.80705C13.7006 9.97046 13.7348 10.1143 13.7753 10.1868L13.6881 10.2356L13.7753 10.1868C13.8477 10.3162 13.9036 10.3845 13.9771 10.4316C14.0534 10.4805 14.1588 10.5131 14.3459 10.5472L14.346 10.5472C16.5016 10.9409 18.3266 12.4165 19.0206 14.3378C19.2162 14.8795 19.2945 15.2589 19.3366 15.8677C19.3566 16.1561 19.3743 16.3149 19.407 16.4237C19.437 16.5235 19.4797 16.5821 19.5657 16.6657C19.9568 17.046 20.6106 16.9449 20.8349 16.4908C20.8716 16.4166 20.8972 16.2672 20.8998 16.0491C20.9023 15.8359 20.883 15.5713 20.8409 15.2778C20.6049 13.6342 19.8293 12.2063 18.5493 11.0628C17.8907 10.4743 17.4009 10.145 16.699 9.81695C16.603 9.77205 16.5179 9.7275 16.4582 9.69138C16.4291 9.67381 16.4022 9.65597 16.3827 9.63946C16.3744 9.63242 16.3595 9.61917 16.3485 9.6011C16.3431 9.59234 16.3324 9.57254 16.332 9.54539C16.3315 9.51148 16.3473 9.48048 16.3732 9.46079C16.3732 9.46077 16.3733 9.46075 16.3733 9.46073L16.4337 9.54042C16.4526 9.52609 16.6048 9.41353 16.7721 9.29025L16.7127 9.20976C18.0809 8.20117 18.8781 6.41 18.6895 4.7769C18.5448 3.52442 18.0212 2.51003 17.0619 1.62773C16.2178 0.851317 15.3313 0.41874 14.0913 0.181785L14.1101 0.0835627L14.0913 0.181784C13.7917 0.124499 13.6339 0.0988276 13.5183 0.10004C13.4114 0.101161 13.3396 0.125223 13.2107 0.184319C12.6813 0.426856 12.6449 1.09221 13.1428 1.3891L13.0916 1.47499L13.1428 1.3891C13.2142 1.43167 13.3868 1.49108 13.5213 1.5154L13.7089 9.38982ZM13.7089 9.38982C13.7301 9.31786 13.8041 9.17553 13.8727 9.08119L13.7919 9.02235L13.7089 9.38982ZM16.4941 9.62012L16.4942 9.62005L16.4941 9.62012ZM4.25705 9.18194L4.25704 9.18193C3.30731 8.4656 2.59838 7.3318 2.36809 6.16072C2.26697 5.64637 2.27688 4.81466 2.38978 4.31598C2.62544 3.27513 3.07535 2.48227 3.85209 1.73953L3.78298 1.66726L3.85209 1.73953C4.66968 0.957722 5.73403 0.427617 6.89079 0.227402C7.11566 0.188503 7.4132 0.176194 7.99528 0.18491C8.70728 0.195586 8.82975 0.207749 9.20014 0.297037C10.2675 0.55436 11.1077 0.997113 11.8596 1.69646C12.6483 2.43 13.1771 3.36601 13.3821 4.38898C13.4843 4.89957 13.4745 5.76705 13.3613 6.25898C13.0646 7.54784 12.2903 8.67613 11.2057 9.40143L11.2057 9.40143L11.0871 9.48073L10.9398 9.57923L11.1003 9.6544L11.4391 9.81314L11.4391 9.81314C12.1866 10.1634 12.8033 10.5887 13.4477 11.1995L13.5086 11.1352L13.4477 11.1995C14.2943 12.0019 14.8549 12.8447 15.2408 13.894C15.4192 14.3787 15.5494 14.9447 15.6114 15.4364C15.6424 15.6821 15.6561 15.9071 15.6507 16.0926C15.6453 16.2818 15.6202 16.4174 15.5828 16.4932C15.4155 16.832 14.9486 16.9983 14.5681 16.8395L14.5295 16.9318L14.568 16.8395C14.3809 16.7614 14.2797 16.6821 14.2135 16.5513C14.1426 16.4115 14.1059 16.2024 14.0831 15.8472C14.0128 14.7533 13.681 13.8342 13.0362 12.9478C12.7149 12.5061 12.0593 11.8738 11.5829 11.5454C10.8847 11.0641 9.904 10.6738 8.97856 10.5071C8.68724 10.4546 8.25355 10.4319 7.82389 10.4359C7.39415 10.4399 6.95902 10.4708 6.66474 10.5287C5.38097 10.7813 4.4033 11.2694 3.47681 12.1218C2.74453 12.7955 2.29492 13.4582 1.97978 14.3318C1.77883 14.8888 1.70458 15.2575 1.66354 15.8975C1.64727 16.1513 1.63672 16.2815 1.61814 16.3689C1.60143 16.4476 1.57892 16.489 1.528 16.5648C1.37724 16.789 1.10318 16.918 0.812752 16.8947C0.553815 16.874 0.356895 16.7648 0.216144 16.5693C0.161585 16.4935 0.122619 16.38 0.10726 16.2046C0.0919206 16.0294 0.100784 15.8007 0.134769 15.5018L0.0354199 15.4905L0.134769 15.5018C0.321173 13.8618 1.05487 12.3895 2.2608 11.2367L2.19351 11.1663L2.2608 11.2367C2.89074 10.6345 3.54182 10.1809 4.27377 9.83325C4.37723 9.78411 4.46883 9.73563 4.53323 9.69662C4.56467 9.67758 4.59319 9.65868 4.61367 9.64162C4.62255 9.63422 4.63732 9.62122 4.64853 9.60401C4.6538 9.59592 4.66498 9.57696 4.66668 9.55051C4.66886 9.51668 4.65456 9.48316 4.62656 9.46142C4.60665 9.44597 4.43998 9.31994 4.25705 9.18194ZM8.84672 1.62615L8.82323 1.72335L8.84672 1.62615C8.65693 1.5803 8.34914 1.54904 8.04551 1.53573C7.74172 1.52241 7.4301 1.52652 7.23223 1.55524L7.23223 1.55524C5.2708 1.84007 3.79555 3.41636 3.79555 5.25581C3.79555 6.27055 4.20637 7.1723 4.9939 7.89643C5.55297 8.41051 6.16776 8.73024 6.9339 8.90644C7.14144 8.95418 7.50156 8.97656 7.85309 8.97657C8.20461 8.97659 8.56467 8.95424 8.7721 8.90652C10.2449 8.56773 11.394 7.53836 11.7911 6.18939C11.8543 5.97481 11.887 5.63013 11.8914 5.29488C11.8957 4.95983 11.8719 4.61645 11.8141 4.40473L11.7176 4.43109L11.8141 4.40473C11.6234 3.70695 11.2741 3.13455 10.7328 2.63142C10.1832 2.12039 9.59421 1.80676 8.84672 1.62615Z" fill="white" stroke="#2F3241" stroke-width="0.2"/>
</svg>
