<svg width="57" height="65" viewBox="0 0 57 65" fill="none" xmlns="http://www.w3.org/2000/svg">
<path d="M56.9945 32.0169C56.9945 36.3863 57.0114 40.7472 56.986 45.1166C56.9691 47.4492 55.8451 49.1395 53.8421 50.2889C46.4217 54.5653 39.0098 58.8418 31.5894 63.1182C29.5357 64.3014 27.4651 64.293 25.4199 63.1097C18.1432 58.9263 10.8834 54.7175 3.59821 50.5424C2.31358 49.8072 1.19799 48.9367 0.555683 47.5506C0.166916 46.697 0.00633859 45.8096 0.00633859 44.8884C-0.00211286 36.2933 -0.00211286 27.7066 0.00633859 19.1115C0.00633859 16.6944 1.10503 14.9111 3.20944 13.711C8.79585 10.5079 14.3654 7.27945 19.9433 4.05945C21.8787 2.94386 23.7887 1.76911 25.7579 0.721126C27.6595 -0.293048 29.6202 -0.225437 31.488 0.847898C39.0098 5.16659 46.5231 9.50218 54.028 13.8547C55.9972 14.9956 56.986 16.7535 56.986 19.0439C56.9945 23.371 56.9945 27.6897 56.9945 32.0169ZM1.50225 44.1785C1.48534 44.1954 1.46844 44.2038 1.45154 44.2208C1.47689 44.2377 1.49379 44.2546 1.51915 44.263C1.53605 44.3137 1.56141 44.3729 1.56141 44.4236C1.69663 46.5449 2.66855 48.1929 4.49406 49.2494C11.4665 53.2976 18.4474 57.3036 25.4283 61.3349C26.9749 62.2308 28.5976 62.4167 30.3048 61.9181C31.2176 61.6476 31.9951 61.0983 32.8149 60.625C39.3817 56.8388 45.9569 53.0694 52.5068 49.2663C54.4421 48.1422 55.4563 46.4012 55.4648 44.1531C55.4817 36.0651 55.4817 27.9855 55.4648 19.8975C55.4648 17.6156 54.4252 15.8746 52.473 14.7167C50.808 13.7195 49.1093 12.7729 47.4359 11.8094C42.1622 8.77536 36.9054 5.73284 31.6401 2.70722C29.6456 1.55782 27.5919 1.4564 25.5804 2.6058C18.5995 6.59488 11.6355 10.6262 4.66309 14.6407C3.8602 15.1055 3.16718 15.6971 2.63474 16.4493C1.84876 17.5564 1.51915 18.7988 1.51915 20.1426C1.51915 27.9855 1.51915 35.8285 1.51915 43.6799C1.51915 43.8404 1.5107 44.0095 1.50225 44.1785Z" fill="#EDA422"/>
<path d="M1.50195 44.1785C1.5104 44.0095 1.51886 43.8404 1.51886 43.6714C1.51886 35.8285 1.51886 27.9855 1.51886 20.1341C1.51886 18.7903 1.84846 17.548 2.63445 16.4408C3.17534 15.6802 3.85991 15.0886 4.6628 14.6322C11.6352 10.6262 18.5992 6.59489 25.5801 2.6058C27.5916 1.4564 29.6453 1.55782 31.6398 2.70722C36.9051 5.73284 42.1619 8.77536 47.4271 11.8094C49.109 12.7813 50.7993 13.7279 52.4642 14.7167C54.4165 15.883 55.456 17.6156 55.456 19.8975C55.4645 27.9855 55.4729 36.0651 55.456 44.1531C55.4476 46.4012 54.4334 48.1422 52.498 49.2663C45.9481 53.0694 39.3729 56.8472 32.8061 60.625C31.9948 61.0983 31.2173 61.6476 30.2961 61.9181C28.5889 62.4252 26.9662 62.2308 25.4196 61.3349C18.4387 57.3036 11.4578 53.2892 4.48532 49.2494C2.65135 48.1845 1.68789 46.5449 1.55266 44.4236C1.55266 44.3729 1.52731 44.3137 1.5104 44.263C1.5104 44.2377 1.50195 44.2123 1.50195 44.1785ZM2.626 32C2.626 35.9468 2.626 39.8852 2.626 43.832C2.626 45.8603 3.46269 47.3985 5.23749 48.4211C7.46023 49.6973 9.67451 50.9819 11.8888 52.2581C16.6047 54.9794 21.3122 57.7008 26.0365 60.4053C27.6677 61.3434 29.3326 61.3518 30.9722 60.4137C35.2063 57.9882 39.4236 55.5457 43.6493 53.1032C46.4045 51.5144 49.1597 49.9424 51.9064 48.3282C53.546 47.3647 54.3658 45.911 54.3658 44.001C54.3658 35.9975 54.3658 28.0024 54.3658 19.9989C54.3658 18.0889 53.546 16.6352 51.9064 15.6717C49.4809 14.2434 47.0384 12.849 44.6044 11.446C40.0997 8.84297 35.5951 6.24838 31.082 3.64533C29.3917 2.67341 27.7015 2.63116 26.0027 3.61152C19.2331 7.52455 12.4719 11.4545 5.67697 15.3168C3.55566 16.5169 2.56684 18.2072 2.60909 20.6412C2.67671 24.4275 2.626 28.2137 2.626 32Z" fill="#FEFCFA"/>
<path d="M1.50188 44.1785C1.51033 44.2039 1.51033 44.2377 1.51878 44.263C1.49343 44.2461 1.47653 44.2292 1.45117 44.2208C1.46807 44.2039 1.48498 44.1954 1.50188 44.1785Z" fill="#EC9D11"/>
<path d="M2.6266 31.9999C2.6266 28.2137 2.67731 24.419 2.6097 20.6327C2.56744 18.1987 3.55626 16.5169 5.67757 15.3083C12.4725 11.4545 19.2337 7.52454 26.0033 3.61997C27.6936 2.64805 29.3923 2.68186 31.0826 3.65378C35.5873 6.25682 40.0919 8.85142 44.605 11.4545C47.039 12.8574 49.4814 14.2519 51.907 15.6802C53.5466 16.6437 54.3664 18.0973 54.3664 20.0073C54.3664 28.0109 54.3664 36.0059 54.3664 44.0095C54.3664 45.911 53.5466 47.3731 51.907 48.3366C49.1687 49.9424 46.4051 51.5228 43.6499 53.1117C39.4242 55.5457 35.1985 57.9882 30.9728 60.4222C29.3332 61.3603 27.6683 61.3518 26.0371 60.4137C21.3212 57.7008 16.6053 54.9794 11.8894 52.2665C9.67511 50.9904 7.46083 49.7057 5.2381 48.4296C3.46329 47.4154 2.6266 45.8688 2.6266 43.8404C2.63505 39.8936 2.6266 35.9468 2.6266 31.9999ZM14.9742 26.2107C14.9742 26.5488 14.9826 26.8868 15.0333 27.2249C15.2446 28.7377 15.8447 30.1153 16.5799 31.4337C18.135 34.2058 20.2141 36.5722 22.4114 38.8372C24.1102 40.5951 25.9357 42.2262 27.8204 43.7897C28.1415 44.0602 28.3359 44.0348 28.6571 43.7982C31.9954 41.3388 35.1393 38.6681 37.9114 35.5749C39.4073 33.91 40.7849 32.1436 41.6977 30.073C42.3822 28.5264 42.771 26.9375 42.3315 25.2388C41.385 21.6131 37.3029 19.5932 33.6603 20.9539C31.894 21.6131 30.3896 22.6949 29.0289 23.9795C28.843 24.157 28.7754 24.1739 28.581 23.9626C27.3809 22.678 26.0456 21.5624 24.4398 20.8102C22.1495 19.7453 19.8929 19.6777 17.7801 21.2328C16.1151 22.4752 14.9404 24.0049 14.9742 26.2107ZM43.4978 23.8612C43.464 23.8696 43.5232 23.8696 43.5654 23.8443C44.2246 23.3964 44.8754 22.9231 45.467 22.3906C45.6276 22.247 45.6107 21.9934 45.4586 21.8075C45.3233 21.6469 45.129 21.5455 44.9346 21.6892C44.3092 22.1456 43.6922 22.6104 43.0837 23.0837C42.9062 23.2189 42.9231 23.4471 42.9992 23.633C43.0668 23.7767 43.2105 23.895 43.4978 23.8612ZM11.5682 25.8726C11.3569 25.8642 11.1795 25.9403 11.1119 26.1262C11.0527 26.3121 11.0358 26.5234 11.2302 26.6586C11.8218 27.0812 12.4134 27.5122 13.0134 27.9263C13.2585 28.0954 13.5121 28.0193 13.6811 27.7911C13.8586 27.5376 13.7572 27.3094 13.5205 27.1404C12.9965 26.7685 12.4725 26.3882 11.9486 26.0163C11.8218 25.9487 11.7035 25.8557 11.5682 25.8726ZM13.9177 24.3429C14.1459 24.3345 14.3065 24.2584 14.3741 24.064C14.4417 23.8781 14.4248 23.6922 14.2558 23.5654C13.6557 23.1259 13.0557 22.6864 12.4303 22.2723C12.1936 22.1117 11.9316 22.1794 11.7711 22.4414C11.6189 22.6864 11.7204 22.8977 11.9401 23.0583C12.481 23.4471 13.0134 23.8274 13.5543 24.2162C13.6726 24.2922 13.7994 24.3598 13.9177 24.3429ZM43.3711 27.5967C43.3541 27.7742 43.4049 27.901 43.5654 27.9855C43.7429 28.0869 43.9119 28.07 44.0725 27.9517C44.6219 27.5376 45.1712 27.1235 45.7206 26.7178C45.9656 26.5319 46.0417 26.2783 45.8727 26.0248C45.6867 25.7459 45.4163 25.7966 45.1797 25.9656C44.6388 26.3628 44.1063 26.7685 43.5654 27.1657C43.4049 27.2756 43.3541 27.4277 43.3711 27.5967Z" fill="#EDA320"/>
<path d="M14.9743 26.2107C14.9405 24.0049 16.1153 22.4752 17.7802 21.2497C19.8931 19.6946 22.1496 19.7622 24.44 20.8271C26.0457 21.5793 27.3811 22.6864 28.5812 23.9795C28.7756 24.1823 28.8432 24.1654 29.0291 23.9964C30.3898 22.7118 31.8857 21.63 33.6605 20.9708C37.3031 19.6101 41.3851 21.6216 42.3317 25.2557C42.7712 26.946 42.3824 28.5433 41.6978 30.0899C40.7851 32.1605 39.4159 33.9269 37.9116 35.5918C35.1395 38.685 31.9871 41.3557 28.6572 43.8151C28.3361 44.0517 28.1417 44.0686 27.8206 43.8066C25.9359 42.2431 24.1104 40.612 22.4116 38.8541C20.2142 36.5891 18.1436 34.2142 16.5801 31.4506C15.8364 30.1322 15.2448 28.7546 15.0335 27.2418C14.9912 26.8868 14.9743 26.5488 14.9743 26.2107ZM16.0815 26.3206C16.0477 26.8784 16.166 27.4362 16.3266 27.994C16.9013 30.0477 18.0253 31.814 19.2761 33.5043C21.0594 35.9045 23.1131 38.0596 25.302 40.0964C26.1979 40.9331 27.136 41.7107 28.0487 42.522C28.2178 42.6741 28.3276 42.6741 28.5136 42.5389C31.7336 40.1133 34.7845 37.5018 37.4383 34.4593C38.7652 32.9381 39.9568 31.3238 40.7766 29.4645C41.3006 28.2729 41.6302 27.0389 41.3175 25.7374C40.9203 24.0894 39.8132 22.9569 38.3849 22.154C36.8044 21.2666 35.1733 21.4948 33.5929 22.1963C31.835 22.9822 30.3475 24.1485 29.0714 25.5768C28.9192 25.7459 28.8009 25.9741 28.5389 25.6275C27.3726 24.1147 25.9781 22.8639 24.2878 21.9765C22.7666 21.1736 21.1862 20.8187 19.5128 21.537C17.8816 22.2301 15.9125 24.1654 16.0815 26.3206Z" fill="#FEFCFA"/>
<path d="M43.4975 23.8612C43.2017 23.895 43.0665 23.7767 42.9989 23.6245C42.9228 23.4471 42.9059 23.2104 43.0834 23.0752C43.6919 22.6019 44.3089 22.1371 44.9343 21.6807C45.1287 21.5455 45.3146 21.6385 45.4583 21.799C45.6188 21.985 45.6273 22.2385 45.4667 22.3822C44.8751 22.9146 44.2244 23.3879 43.5651 23.8358C43.5313 23.8696 43.4637 23.8696 43.4975 23.8612Z" fill="#FDFBF7"/>
<path d="M11.5682 25.8726C11.7119 25.8642 11.8218 25.9487 11.9401 26.0248C12.4641 26.3966 12.9881 26.7685 13.5121 27.1488C13.7487 27.3178 13.8501 27.546 13.6726 27.7996C13.5121 28.0278 13.2585 28.1038 13.005 27.9348C12.4049 27.5207 11.8133 27.0896 11.2217 26.6671C11.0273 26.5234 11.0442 26.3121 11.1034 26.1346C11.1794 25.9403 11.3485 25.8642 11.5682 25.8726Z" fill="#FDFBF7"/>
<path d="M13.9175 24.3429C13.7992 24.3598 13.6725 24.2922 13.5541 24.2161C13.0132 23.8274 12.4808 23.4471 11.9399 23.0583C11.7202 22.8977 11.6187 22.6949 11.7709 22.4413C11.9315 22.1878 12.185 22.1117 12.4301 22.2723C13.047 22.6864 13.6471 23.1259 14.2556 23.5654C14.4246 23.6921 14.4415 23.8781 14.3739 24.064C14.3063 24.2584 14.1457 24.3345 13.9175 24.3429Z" fill="#FEFCF9"/>
<path d="M43.3713 27.5967C43.3544 27.4193 43.4051 27.2756 43.5572 27.1657C44.0981 26.7685 44.6305 26.3544 45.1714 25.9656C45.4081 25.7966 45.6785 25.7459 45.8644 26.0248C46.0335 26.2783 45.9574 26.5319 45.7123 26.7178C45.163 27.1319 44.6136 27.546 44.0643 27.9517C43.9037 28.07 43.7347 28.0869 43.5572 27.9855C43.4135 27.901 43.3628 27.7742 43.3713 27.5967Z" fill="#FEFCF9"/>
<path d="M16.0815 26.3205C15.9124 24.1654 17.8816 22.2385 19.4959 21.537C21.1692 20.8186 22.7497 21.1736 24.2709 21.9765C25.9612 22.8724 27.3642 24.1232 28.522 25.6275C28.784 25.9656 28.9023 25.7458 29.0544 25.5768C30.3306 24.1401 31.8181 22.9738 33.576 22.1962C35.1564 21.4948 36.7875 21.2666 38.3679 22.154C39.7962 22.9569 40.9034 24.0894 41.3006 25.7374C41.6133 27.0305 41.2837 28.2728 40.7597 29.4645C39.9484 31.3238 38.7483 32.9465 37.4214 34.4593C34.7676 37.5018 31.7167 40.1133 28.4967 42.5389C28.3192 42.6741 28.2009 42.6741 28.0318 42.522C27.1191 41.7106 26.181 40.9247 25.2851 40.0964C23.1046 38.0596 21.0425 35.9045 19.2592 33.5043C18.0084 31.814 16.8844 30.0476 16.3097 27.9939C16.166 27.4361 16.0477 26.8699 16.0815 26.3205ZM28.3276 41.3472C28.5051 41.2796 28.8685 41.381 28.9953 41.0345C29.1136 40.7218 28.8432 40.5528 28.6403 40.3838C28.4713 40.2401 28.2854 40.1049 28.0994 39.9781C27.4149 39.5048 26.7557 38.9977 26.1979 38.3808C25.3612 37.4511 24.5498 36.4961 23.7047 35.5749C23.4765 35.3213 23.1891 34.9072 22.7919 35.1861C22.4285 35.4481 22.6567 35.8538 22.8004 36.1918C23.0032 36.6651 23.3835 37.0201 23.7216 37.3919C24.778 38.5413 25.8175 39.7076 26.9331 40.7979C27.305 41.1359 27.736 41.3303 28.3276 41.3472ZM36.5509 22.7287C35.8917 22.7202 35.4691 23.0414 35.4353 23.4809C35.4015 24.0471 35.8748 23.9541 36.1959 24.0556C36.2128 24.0556 36.2213 24.0556 36.2382 24.064C36.9312 24.1485 37.4636 24.5035 37.8947 25.0444C38.1651 25.3824 38.3172 25.7712 38.5539 26.1177C38.8666 26.5656 39.3652 26.5572 39.6357 26.0839C39.7962 25.805 39.7793 25.5177 39.6272 25.2388C39.2807 24.5964 38.8412 24.0387 38.2834 23.5738C37.751 23.109 37.1256 22.7963 36.5509 22.7287Z" fill="#EDA420"/>
<path d="M28.3275 41.3473C27.7359 41.3304 27.3049 41.136 26.9499 40.7895C25.8343 39.6992 24.7948 38.5329 23.7383 37.3835C23.4003 37.0117 23.02 36.6651 22.8171 36.1834C22.6735 35.8454 22.4453 35.4397 22.8087 35.1777C23.1975 34.8988 23.4848 35.3129 23.7214 35.5665C24.5666 36.4877 25.3779 37.4427 26.2146 38.3723C26.7724 38.9893 27.4232 39.5048 28.1162 39.9697C28.3021 40.0964 28.4796 40.2317 28.6571 40.3753C28.8599 40.5444 29.1219 40.7134 29.0121 41.0261C28.8684 41.3895 28.505 41.2881 28.3275 41.3473Z" fill="#FEFCFA"/>
<path d="M36.5506 22.7287C37.1253 22.8047 37.7507 23.109 38.3001 23.5654C38.8578 24.0218 39.3058 24.588 39.6438 25.2303C39.796 25.5092 39.8129 25.7966 39.6523 26.0755C39.3734 26.5487 38.8747 26.5572 38.5705 26.1093C38.3339 25.7628 38.1733 25.3655 37.9113 25.0359C37.4803 24.495 36.9478 24.1485 36.2548 24.0556C36.2379 24.0556 36.2294 24.0556 36.2125 24.0471C35.8914 23.9457 35.4181 24.0387 35.4519 23.4724C35.4688 23.0414 35.8914 22.7202 36.5506 22.7287Z" fill="#FEFCFA"/>
</svg>
