<svg width="60" height="60" viewBox="0 0 60 60" fill="none" xmlns="http://www.w3.org/2000/svg">
<path d="M27.5 1.44338C29.047 0.550211 30.953 0.550212 32.5 1.44338L53.4808 13.5566C55.0278 14.4498 55.9808 16.1004 55.9808 17.8868V42.1133C55.9808 43.8996 55.0278 45.5502 53.4808 46.4434L32.5 58.5566C30.953 59.4498 29.047 59.4498 27.5 58.5566L6.51924 46.4434C4.97223 45.5502 4.01924 43.8996 4.01924 42.1133V17.8868C4.01924 16.1004 4.97223 14.4498 6.51924 13.5566L27.5 1.44338Z" fill="black" fill-opacity="0.06"/>
<path d="M35.7744 31.5332C35.7744 33.696 35.3268 35.3503 34.4316 36.4961C33.5365 37.6419 32.2259 38.2148 30.5 38.2148C28.7956 38.2148 27.4922 37.6527 26.5898 36.5283C25.6875 35.404 25.2256 33.7926 25.2041 31.6943V28.8154C25.2041 26.6312 25.6553 24.9733 26.5576 23.8418C27.4671 22.7103 28.7741 22.1445 30.4785 22.1445C32.1829 22.1445 33.4863 22.7067 34.3887 23.8311C35.291 24.9482 35.7529 26.556 35.7744 28.6543V31.5332ZM32.6699 28.375C32.6699 27.0788 32.4909 26.137 32.1328 25.5498C31.7819 24.9554 31.2305 24.6582 30.4785 24.6582C29.748 24.6582 29.2074 24.9411 28.8564 25.5068C28.5127 26.0654 28.3301 26.9427 28.3086 28.1387V31.9414C28.3086 33.2161 28.4805 34.165 28.8242 34.7881C29.1751 35.404 29.7337 35.7119 30.5 35.7119C31.2591 35.7119 31.807 35.4147 32.1436 34.8203C32.4801 34.2259 32.6556 33.3164 32.6699 32.0918V28.375Z" fill="#7B7B7B"/>
</svg>
