<svg width="60" height="60" viewBox="0 0 60 60" fill="none" xmlns="http://www.w3.org/2000/svg">
<path d="M27.5 1.44338C29.047 0.550211 30.953 0.550212 32.5 1.44338L53.4808 13.5566C55.0278 14.4498 55.9808 16.1004 55.9808 17.8868V42.1133C55.9808 43.8996 55.0278 45.5502 53.4808 46.4434L32.5 58.5566C30.953 59.4498 29.047 59.4498 27.5 58.5566L6.51924 46.4434C4.97223 45.5502 4.01924 43.8996 4.01924 42.1133V17.8868C4.01924 16.1004 4.97223 14.4498 6.51924 13.5566L27.5 1.44338Z" fill="#EC9D76"/>
<path d="M25.6045 38H22.5V26.0332L18.7939 27.1826V24.6582L25.2715 22.3379H25.6045V38ZM38.2373 38H35.1328V26.0332L31.4268 27.1826V24.6582L37.9043 22.3379H38.2373V38Z" fill="#E1692D"/>
</svg>
