<svg width="108" height="22" viewBox="0 0 108 22" fill="none" xmlns="http://www.w3.org/2000/svg">
<path d="M11.9246 11.6993H14.0284L11.9246 7.45117L9.83057 11.6993H11.9246Z" fill="white"/>
<path d="M18.6722 15.1056C21.377 12.338 23.8589 9.11559 23.8589 6.58993C23.8589 2.95142 20.902 0.00964355 17.2664 0.00964355C15.7831 0.00964355 14.4162 0.503165 13.311 1.3257C12.7099 1.78051 12.5257 2.60305 12.8553 3.28043L18.6722 15.1056Z" fill="white"/>
<path d="M15.2305 13.6445H11.9343H8.62838L7.01904 16.8862C9.60755 19.2958 11.9343 21.0376 11.9343 21.0376C11.9343 21.0376 14.2514 19.3055 16.8496 16.8862L15.2305 13.6445Z" fill="white"/>
<path d="M11.0036 3.28046C11.3332 2.60308 11.149 1.77087 10.5479 1.32573C9.45242 0.493521 8.07576 0 6.59246 0C2.95691 0 0 2.95145 0 6.58028C0 9.10595 2.48187 12.3284 5.18671 15.0959L11.0036 3.28046Z" fill="white"/>
<path d="M33.9223 16.4217L32.8365 14.2057H26.719L25.6138 16.4217H23.0835L29.802 2.78693L36.4526 16.4217H33.9223ZM31.7216 11.9219L29.7923 7.96406L27.8339 11.9219H31.7216Z" fill="white"/>
<path d="M43.3164 16.3539C42.696 16.7023 41.9882 16.9152 41.1933 16.9152C38.6435 16.9152 36.5688 14.883 36.5688 12.3283C36.5688 9.76396 38.6435 7.71246 41.1933 7.71246C41.9979 7.71246 42.6766 7.84794 43.3455 8.20599H45.585V16.6636C45.585 19.4892 43.2776 21.8407 40.4468 21.8407C39.0604 21.8407 37.7807 21.3182 36.8112 20.3505L38.4109 18.7441C38.9344 19.3054 39.6809 19.5957 40.4468 19.5957C42.0076 19.5957 43.3067 18.2506 43.3067 16.6733V16.3539H43.3164ZM38.8374 12.3283C38.8374 13.6444 39.9039 14.6895 41.1933 14.6895C42.6378 14.6895 43.3843 13.4605 43.3843 12.3283C43.3843 11.1768 42.6475 9.97686 41.1933 9.97686C39.9039 9.97686 38.8374 11.0316 38.8374 12.3283Z" fill="white"/>
<path d="M53.554 16.4217C52.9335 16.7701 52.2355 16.9152 51.4502 16.9152C48.9199 16.9152 46.8452 14.8637 46.8452 12.3187C46.8452 9.77367 48.9199 7.72217 51.4502 7.72217C52.2355 7.72217 52.9335 7.86732 53.554 8.21569H55.8226V16.4314H53.554V16.4217ZM49.1138 12.309C49.1138 13.6057 50.1705 14.6605 51.4502 14.6605C52.8851 14.6605 53.6219 13.4412 53.6219 12.309C53.6219 11.1768 52.8851 9.95753 51.4502 9.95753C50.1608 9.96721 49.1138 11.0123 49.1138 12.309Z" fill="white"/>
<path d="M59.6521 8.20599C60.3308 7.85762 60.9803 7.71246 61.7753 7.71246C64.325 7.71246 66.4191 9.78332 66.4191 12.3477C66.4191 14.8927 64.325 16.9152 61.7753 16.9152C60.99 16.9152 60.2823 16.7507 59.6521 16.3926V21.8504H57.3835V8.20599H59.6521ZM59.5843 12.3477C59.5843 13.4605 60.3405 14.6605 61.7753 14.6605C63.0938 14.6605 64.1408 13.6444 64.1408 12.3477C64.1408 11.0316 63.0841 9.98653 61.7753 9.98653C60.3405 9.97685 59.5843 11.1961 59.5843 12.3477Z" fill="white"/>
<path d="M75.1735 15.5314C74.4173 16.383 73.3606 16.9152 72.11 16.9152C69.5796 16.9152 67.5146 14.8637 67.5146 12.3283C67.5146 9.80267 69.5699 7.71246 72.11 7.71246C74.6403 7.71246 76.4339 9.80267 76.4339 12.3283C76.4339 12.5606 76.4048 13.0154 76.3369 13.296H70.0644C70.3746 14.0024 71.2374 14.6605 72.1003 14.6605C72.5075 14.6605 72.8371 14.5637 73.1376 14.3798L75.1735 15.5314ZM73.952 11.38C73.6902 10.5284 73.0116 9.96718 72.11 9.96718C71.092 9.96718 70.3649 10.4607 70.0547 11.38H73.952Z" fill="white"/>
<path d="M87.9122 16.4217L86.6131 13.5186H78.8961L77.5776 16.4217H76.5693L82.7546 2.78693L88.9108 16.4217H87.9122ZM86.206 12.609L82.7643 5.00293L79.3033 12.609H86.206Z" fill="white"/>
<path d="M96.725 15.5701C95.901 16.412 94.7376 16.9152 93.4676 16.9152C90.9178 16.9152 88.8625 14.8637 88.8625 12.3187C88.8625 9.77367 90.9178 7.72217 93.4676 7.72217C94.7376 7.72217 95.901 8.23504 96.725 9.06725L96.0852 9.70593C95.4259 9.02855 94.4855 8.62212 93.4676 8.62212C91.4317 8.62212 89.7642 10.2769 89.7642 12.3187C89.7642 14.3508 91.422 16.0153 93.4676 16.0153C94.4855 16.0153 95.4259 15.6088 96.0852 14.9314L96.725 15.5701Z" fill="white"/>
<path d="M101.766 8.20599V9.10594H99.8272V16.4217H98.8966V9.10594H97.6362V8.20599H98.8966V3.28046H99.8272V8.20599H101.766Z" fill="white"/>
<path d="M103.288 14.167C103.405 15.2314 104.238 16.0056 105.227 16.0056C106.245 16.0056 107.089 15.1637 107.089 14.1476C107.089 13.7993 106.992 13.4606 106.788 13.1412C106.488 12.6767 106.061 12.5509 105.111 12.2897C104.326 12.0574 103.715 11.8929 103.288 11.2349C103.056 10.8768 102.93 10.4317 102.93 9.98657C102.93 8.73825 103.967 7.70282 105.237 7.70282C106.371 7.70282 107.312 8.52536 107.496 9.58981L106.604 9.77367C106.507 9.11565 105.925 8.60277 105.237 8.60277C104.461 8.60277 103.841 9.22209 103.841 9.98657C103.841 10.2672 103.918 10.5091 104.074 10.7414C104.287 11.0897 104.636 11.2059 105.353 11.4187C106.371 11.6994 107.079 11.9123 107.554 12.6671C107.835 13.1122 108 13.6154 108 14.1476C108 15.6766 106.749 16.9055 105.237 16.9055C103.802 16.9055 102.6 15.8411 102.406 14.3605L103.288 14.167Z" fill="white"/>
</svg>
