<svg width="24" height="22" viewBox="0 0 24 22" fill="none" xmlns="http://www.w3.org/2000/svg">
<path d="M11.9246 11.6993H14.0284L11.9246 7.45117L9.83057 11.6993H11.9246Z" fill="white"/>
<path d="M18.6722 15.1056C21.377 12.338 23.8589 9.11559 23.8589 6.58993C23.8589 2.95142 20.902 0.00964355 17.2664 0.00964355C15.7831 0.00964355 14.4162 0.503165 13.311 1.3257C12.7099 1.78051 12.5257 2.60305 12.8553 3.28043L18.6722 15.1056Z" fill="white"/>
<path d="M15.2305 13.6444H11.9343H8.62838L7.01904 16.8862C9.60755 19.2957 11.9343 21.0376 11.9343 21.0376C11.9343 21.0376 14.2514 19.3054 16.8496 16.8862L15.2305 13.6444Z" fill="white"/>
<path d="M11.0036 3.28046C11.3332 2.60308 11.149 1.77087 10.5479 1.32573C9.45242 0.493521 8.07576 0 6.59246 0C2.95691 0 0 2.95145 0 6.58028C0 9.10595 2.48187 12.3284 5.18671 15.0959L11.0036 3.28046Z" fill="white"/>
</svg>
