<svg width="57" height="65" viewBox="0 0 57 65" fill="none" xmlns="http://www.w3.org/2000/svg">
<path d="M56.9909 32.071C56.9909 36.3197 56.9825 40.5683 56.9993 44.817C57.0077 47.282 55.9645 49.0993 53.8276 50.336C46.7437 54.4164 39.6682 58.5052 32.5927 62.594C31.6757 63.1241 30.7839 63.7214 29.7154 63.9233C28.1926 64.2009 26.7708 63.957 25.4331 63.1829C17.9958 58.8922 10.567 54.6015 3.13816 50.3108C1.06852 49.1161 0.0168745 47.3241 0.0168745 44.9348C0.00846134 36.4206 0.0252877 27.9149 4.81638e-05 19.4008C-0.00836501 16.8011 1.08535 14.9334 3.34008 13.6377C9.90236 9.88547 16.431 6.08271 22.9764 2.29678C23.9608 1.7331 24.9199 1.11893 25.9379 0.630969C27.7467 -0.235588 29.5976 -0.227175 31.3391 0.76558C37.4639 4.26546 43.5635 7.80741 49.6714 11.3409C51.1774 12.2075 52.7002 13.0404 54.1809 13.949C55.9982 15.068 56.9657 16.7338 56.9825 18.8623C57.0162 23.2708 56.9909 27.6709 56.9909 32.071ZM55.4681 32.0374C55.4681 27.957 55.485 23.8766 55.4597 19.7962C55.4429 17.9789 54.7025 16.4646 53.2891 15.2951C52.4646 14.6137 51.4887 14.1594 50.5717 13.6293C44.2786 9.97801 37.9687 6.34352 31.6672 2.70902C29.5892 1.51435 27.4859 1.48911 25.4078 2.68378C18.5427 6.63798 11.686 10.6006 4.8208 14.5548C2.75957 15.741 1.5649 17.4657 1.55649 19.8551C1.52283 27.9738 1.53125 36.0925 1.55649 44.2112C1.5649 46.4576 2.60813 48.2075 4.54316 49.3264C11.5513 53.3984 18.5679 57.4536 25.6013 61.4751C27.5448 62.5856 29.5808 62.5435 31.5242 61.433C38.4567 57.4536 45.3639 53.4405 52.2879 49.4526C54.3997 48.2327 55.4681 46.4155 55.4765 43.9841C55.4681 40.0046 55.4681 36.0168 55.4681 32.0374Z" fill="#F27C21"/>
<path d="M55.4683 32.0374C55.4683 36.0168 55.4683 40.0047 55.4683 43.9841C55.4683 46.4239 54.3998 48.2412 52.2797 49.4527C45.3556 53.4489 38.4484 57.462 31.516 61.4414C29.5725 62.5604 27.5365 62.6025 25.5931 61.4835C18.5597 57.462 11.5431 53.4069 4.53491 49.3349C2.59987 48.2075 1.55664 46.466 1.54823 44.2197C1.52299 36.1009 1.52299 27.9822 1.54823 19.8635C1.55664 17.4742 2.75131 15.7411 4.81254 14.5632C11.6861 10.609 18.5428 6.63799 25.408 2.6838C27.4945 1.48071 29.5894 1.50595 31.6674 2.70904C37.9689 6.34353 44.2788 9.98644 50.5718 13.6293C51.4889 14.1594 52.4648 14.6137 53.2893 15.2952C54.7027 16.4562 55.4431 17.9705 55.4599 19.7962C55.4851 23.8766 55.4683 27.957 55.4683 32.0374ZM54.24 18.9128C53.9707 17.5078 53.1967 16.4393 51.9684 15.7326C44.935 11.6522 37.8932 7.58027 30.8429 3.53353C29.3117 2.65015 27.688 2.65856 26.1568 3.54194C19.1654 7.55503 12.1909 11.6018 5.20796 15.6317C3.49167 16.6244 2.64194 18.122 2.63353 20.0907C2.62511 28.0832 2.62511 36.0757 2.63353 44.0682C2.63353 45.9696 3.48326 47.4335 5.11541 48.4094C6.46152 49.2087 7.82446 49.9827 9.18739 50.7651C14.7485 53.9789 20.318 57.1844 25.8791 60.4066C27.6038 61.4078 29.3201 61.4414 31.0532 60.4403C33.451 59.0521 35.8572 57.6723 38.2549 56.2842C42.8485 53.634 47.4421 50.9839 52.0273 48.3169C53.222 47.6186 53.9623 46.5585 54.2315 45.1872C54.2989 45.1367 54.282 45.0778 54.2736 45.0105C54.2904 44.9011 54.2989 44.7918 54.3157 44.6824C54.4251 44.5478 54.3746 44.3879 54.3746 44.2365C54.3746 36.1178 54.3746 27.9991 54.3746 19.8719C54.3746 19.7205 54.4251 19.5606 54.3157 19.426C54.2989 19.3167 54.2904 19.2073 54.2736 19.0979C54.2904 19.0222 54.2989 18.9549 54.24 18.9128Z" fill="#FEFCFA"/>
<path d="M54.2401 45.1788C53.9624 46.5501 53.2305 47.6102 52.0358 48.3085C47.4506 50.9754 42.857 53.6256 38.2634 56.2757C35.8657 57.6639 33.4595 59.0437 31.0618 60.4318C29.3287 61.433 27.6124 61.3994 25.8877 60.3982C20.3266 57.1759 14.7654 53.9705 9.19592 50.7567C7.8414 49.9743 6.47005 49.2003 5.12394 48.401C3.48337 47.4251 2.64205 45.9612 2.64205 44.0598C2.63364 36.0673 2.63364 28.0748 2.64205 20.0822C2.64205 18.1136 3.49178 16.616 5.21648 15.6233C12.1994 11.5933 19.1739 7.54661 26.1653 3.53352C27.6965 2.65014 29.3202 2.64172 30.8514 3.52511C37.9017 7.57185 44.9435 11.6438 51.9769 15.7242C53.1968 16.4309 53.9708 17.4994 54.2485 18.9044C54.1055 18.9969 54.1643 19.0474 54.2905 19.0811C54.3074 19.1904 54.3158 19.2998 54.3326 19.4092C54.1812 19.527 54.2317 19.6952 54.2317 19.8383C54.2317 27.9654 54.2317 36.1009 54.2317 44.2281C54.2317 44.3711 54.1728 44.5393 54.3326 44.6571C54.3158 44.7665 54.3074 44.8759 54.2905 44.9852C54.1559 45.0273 54.1055 45.0778 54.2401 45.1788ZM13.9914 25.4246C13.9746 26.8296 14.1933 27.9317 14.5888 29.0086C15.4133 31.2718 16.7425 33.2405 18.2233 35.1166C19.9816 37.3545 21.9419 39.4073 24.0199 41.3508C25.1725 42.4276 26.3672 43.4709 27.5787 44.4805C27.8311 44.6908 28.0246 44.7917 28.3275 44.5394C28.9753 44.0093 29.6736 43.5382 30.3298 43.0166C33.6699 40.3832 36.8248 37.5648 39.4918 34.2332C40.7958 32.6095 41.94 30.8848 42.5962 28.8824C43.2693 26.8296 43.2609 24.8441 41.9148 23.0016C39.7778 20.0822 36.8837 19.182 33.5268 20.4608C31.7348 21.1423 30.212 22.2528 28.8491 23.5905C28.6808 23.7588 28.5715 23.8598 28.3611 23.6158C27.3516 22.4548 26.1737 21.4872 24.8528 20.7048C23.5151 19.914 22.0849 19.4092 20.5201 19.4176C17.4156 19.4428 13.9746 22.5473 13.9914 25.4246Z" fill="#F27C1F"/>
<path d="M54.3157 44.6656C54.1642 44.5478 54.2147 44.3795 54.2147 44.2365C54.2147 36.1093 54.2147 27.9738 54.2147 19.8467C54.2147 19.7036 54.1558 19.5354 54.3157 19.4176C54.425 19.5522 54.3745 19.7121 54.3745 19.8635C54.3745 27.9822 54.3745 36.1009 54.3745 44.2281C54.3745 44.3711 54.425 44.5309 54.3157 44.6656Z" fill="#F38834"/>
<path d="M54.282 19.0895C54.1558 19.0559 54.1053 19.0054 54.2399 18.9128C54.2988 18.9549 54.2904 19.0222 54.282 19.0895Z" fill="#F38834"/>
<path d="M54.2399 45.1787C54.1053 45.0862 54.1558 45.0357 54.282 45.0021C54.282 45.061 54.2988 45.1283 54.2399 45.1787Z" fill="#F38834"/>
<path d="M13.9911 25.4246C13.9743 22.5557 17.4153 19.4428 20.5198 19.426C22.0846 19.4176 23.5149 19.9224 24.8526 20.7132C26.165 21.4956 27.3429 22.4632 28.3524 23.6242C28.5628 23.8598 28.6721 23.7672 28.8404 23.5989C30.2033 22.2612 31.7261 21.1507 33.5181 20.4692C36.875 19.1904 39.7691 20.0906 41.9061 23.01C43.2438 24.8441 43.2606 26.8296 42.5875 28.8908C41.9313 30.8932 40.7871 32.6179 39.4831 34.2416C36.8161 37.5732 33.6611 40.3916 30.3211 43.025C29.6649 43.5466 28.9666 44.0177 28.3188 44.5478C28.0159 44.8002 27.8224 44.6992 27.57 44.4889C26.3585 43.4793 25.1638 42.4361 24.0112 41.3592C21.9332 39.4157 19.9729 37.3629 18.2146 35.125C16.7422 33.2489 15.4046 31.2802 14.5801 29.017C14.1931 27.9317 13.9743 26.8296 13.9911 25.4246ZM19.9308 35.2848C19.8719 35.2428 19.8131 35.2175 19.7458 35.2764C19.7878 35.3017 19.8299 35.3269 19.872 35.3522C19.9056 35.411 19.9308 35.4784 19.9813 35.5288C22.3454 38.3052 24.9619 40.8291 27.7467 43.1764C27.9486 43.3447 28.0664 43.3531 28.2683 43.1932C29.9678 41.9313 31.5999 40.602 33.1732 39.1886C34.3763 38.1117 35.5457 37.018 36.6394 35.8233C36.8245 35.6214 36.7909 35.5625 36.5553 35.4615C36.0084 35.226 35.4279 35.125 34.839 35.1166C33.2068 35.0829 31.6336 35.4531 30.136 36.042C28.487 36.6898 26.8128 37.1357 25.0292 37.0264C23.1615 36.9254 21.4789 36.286 19.9308 35.2848ZM17.4742 30.422C17.4405 30.3716 17.3816 30.3463 17.348 30.3884C17.3059 30.4389 17.3816 30.4557 17.4069 30.4893C19.5859 32.4328 22.1603 33.2152 25.0376 33.0385C27.3344 32.8955 29.4293 32.1131 31.3307 30.809C32.7189 29.8583 34.1575 28.9918 35.7056 28.3187C37.5312 27.5195 39.3989 26.9053 41.4265 27.1577C41.8556 27.2082 41.9145 27.0399 41.9313 26.7034C41.9818 25.4414 41.5695 24.3561 40.7955 23.3634C40.4001 22.8502 39.9542 22.6987 39.3485 22.7745C38.137 22.9175 37.0685 23.4391 36.0505 24.0617C34.2585 25.1554 32.7105 26.552 31.2382 28.0327C30.523 28.7478 29.7238 29.362 28.8572 29.8752C26.5099 31.2549 23.986 31.684 21.3022 31.3559C19.9813 31.2045 18.7193 30.8343 17.4742 30.422ZM38.9026 21.6976C37.4387 20.8731 35.9748 20.8142 34.4941 21.3021C32.2141 22.0509 30.3884 23.4896 28.7983 25.2395C28.5375 25.5256 28.4618 25.4583 28.2599 25.2059C27.0736 23.7083 25.677 22.4548 24.0112 21.5125C22.9596 20.9151 21.8322 20.4861 20.6291 20.5281C18.3323 20.6123 16.7422 21.8995 15.6233 23.7924C14.8577 25.0797 15.0091 26.4763 15.3793 27.8644C15.4466 28.1084 15.556 28.2767 15.7916 28.3945C17.8612 29.505 20.0486 30.2201 22.4127 30.3379C24.8441 30.4641 27.0568 29.8331 29.0507 28.4197C30.2033 27.6036 31.1035 26.5267 32.1636 25.6097C34.1323 23.9102 36.1767 22.3201 38.9026 21.6976ZM18.8624 32.9881C19.0895 33.19 19.2746 33.3582 19.4597 33.5181C22.3538 35.9327 25.5508 36.631 29.118 35.226C30.4053 34.7128 31.7345 34.3173 33.1143 34.1238C34.6034 33.9135 36.0757 33.8967 37.4387 34.6791C37.6322 34.7885 37.6826 34.6539 37.7668 34.5529C38.3305 33.9135 38.8605 33.2404 39.3569 32.5506C40.2318 31.3307 41.0059 30.0519 41.5106 28.63C41.62 28.3271 41.5443 28.2683 41.2498 28.2346C40.4422 28.1336 39.6597 28.2346 38.8857 28.4113C36.6983 28.9077 34.738 29.9341 32.8787 31.1372C31.3728 32.1131 29.8752 33.0806 28.1253 33.5854C25.1638 34.4435 22.2445 34.4099 19.4008 33.1143C19.2494 33.0469 19.1064 32.946 18.8624 32.9881Z" fill="#FEFBFA"/>
<path d="M38.9027 21.6976C36.1768 22.3201 34.1324 23.9102 32.1553 25.6181C31.0953 26.5351 30.1951 27.612 29.0425 28.4281C27.0485 29.8415 24.8359 30.4725 22.4045 30.3463C20.0404 30.2285 17.8529 29.505 15.7833 28.4029C15.5477 28.2767 15.4384 28.1084 15.371 27.8728C15.0009 26.4847 14.8494 25.0881 15.615 23.8008C16.734 21.9079 18.3241 20.6207 20.6209 20.5365C21.8324 20.4945 22.9597 20.9235 24.003 21.5209C25.6688 22.4632 27.0654 23.7167 28.2516 25.2143C28.4451 25.4667 28.5293 25.534 28.7901 25.2479C30.3802 23.4896 32.2058 22.0593 34.4858 21.3105C35.9749 20.8058 37.4388 20.8731 38.9027 21.6976Z" fill="#F27C1F"/>
<path d="M17.4742 30.422C18.7193 30.8343 19.9813 31.2044 21.2937 31.3643C23.9775 31.6924 26.5015 31.2633 28.8488 29.8836C29.7237 29.3704 30.5146 28.7562 31.2297 28.0411C32.7104 26.5604 34.2584 25.1638 36.042 24.0701C37.06 23.4475 38.1285 22.9259 39.34 22.7828C39.9458 22.7071 40.3917 22.867 40.7871 23.3718C41.5611 24.3645 41.9733 25.4498 41.9228 26.7118C41.906 27.0483 41.8471 27.225 41.4181 27.1661C39.3905 26.9137 37.5228 27.5279 35.6971 28.3271C34.1491 29.0002 32.7104 29.8667 31.3222 30.8174C29.4209 32.1215 27.326 32.8955 25.0292 33.0469C22.1519 33.2236 19.5775 32.4412 17.3984 30.4977C17.4321 30.4641 17.4489 30.4472 17.4742 30.422Z" fill="#F27C20"/>
<path d="M19.931 35.2849C21.4874 36.2944 23.17 36.9254 25.0293 37.0348C26.8129 37.1442 28.4872 36.6983 30.1361 36.0505C31.6421 35.4615 33.207 35.0829 34.8391 35.125C35.428 35.1418 36.0001 35.2344 36.5554 35.4699C36.791 35.5709 36.8246 35.6298 36.6395 35.8317C35.5542 37.018 34.3764 38.1201 33.1733 39.197C31.6 40.6104 29.9595 41.9397 28.2684 43.2017C28.0581 43.3531 27.9403 43.3531 27.7468 43.1848C24.962 40.8376 22.3455 38.3136 19.9814 35.5373C19.9394 35.4868 19.9141 35.4195 19.8721 35.3606C19.8889 35.3269 19.9057 35.3017 19.931 35.2849Z" fill="#F27C20"/>
<path d="M18.8623 32.9881C19.1063 32.9376 19.2493 33.047 19.3923 33.1143C22.236 34.4015 25.1554 34.4436 28.1168 33.5854C29.8667 33.0806 31.3643 32.1131 32.8702 31.1372C34.7296 29.9257 36.6898 28.9077 38.8773 28.4113C39.6513 28.2346 40.4421 28.1337 41.2414 28.2346C41.5442 28.2767 41.6115 28.3272 41.5022 28.63C40.9974 30.0519 40.2234 31.3307 39.3484 32.5506C38.852 33.2489 38.322 33.9135 37.7583 34.5529C37.6658 34.6539 37.6153 34.7885 37.4302 34.6791C36.0673 33.8967 34.6034 33.9135 33.1058 34.1239C31.7261 34.3174 30.4052 34.7128 29.1096 35.226C25.534 36.6394 22.3454 35.9327 19.4512 33.5181C19.2746 33.3667 19.0895 33.19 18.8623 32.9881Z" fill="#F27C20"/>
<path d="M17.4073 30.4893C17.3821 30.4557 17.3063 30.4388 17.3484 30.3884C17.3821 30.3463 17.441 30.3715 17.4746 30.422C17.4494 30.4473 17.4325 30.4641 17.4073 30.4893Z" fill="#F27C20"/>
<path d="M19.8723 35.3522C19.8302 35.3269 19.7882 35.3017 19.7461 35.2764C19.8134 35.2175 19.8723 35.2512 19.9312 35.2848C19.9059 35.3017 19.8891 35.3269 19.8723 35.3522Z" fill="#F27C20"/>
</svg>
