<svg width="57" height="65" viewBox="0 0 57 65" fill="none" xmlns="http://www.w3.org/2000/svg">
<path d="M56.9963 32.0006C56.9963 36.2758 57.0047 40.5595 56.9963 44.8347C56.9963 45.912 56.7943 46.9471 56.2557 47.8981C55.7002 48.8912 54.9175 49.6402 53.9329 50.204C47.9492 53.6545 41.974 57.105 35.9987 60.5555C34.4839 61.4308 32.9775 62.3229 31.4542 63.1813C29.5354 64.2585 27.5577 64.3258 25.6473 63.2318C18.7463 59.2931 11.879 55.3125 5.00322 51.3402C4.26262 50.911 3.51361 50.507 2.78985 50.0441C0.997277 48.8996 0.0210396 47.2585 0.0126238 45.1125C-0.00420792 36.36 -0.00420792 27.6075 0.0126238 18.8551C0.0126238 16.6754 0.988861 14.9754 2.84876 13.8813C7.12401 11.3734 11.4245 8.91595 15.7166 6.43328C18.8725 4.61546 22.0369 2.81447 25.1676 0.962987C27.4398 -0.358299 29.6195 -0.299388 31.875 1.01348C38.1532 4.67437 44.4567 8.29318 50.7517 11.9204C51.8037 12.5263 52.8641 13.1323 53.9161 13.7551C55.7339 14.8323 56.8111 16.3808 56.9542 18.5437C56.9794 18.9392 56.9963 19.3263 56.9963 19.7135C56.9963 23.812 56.9963 27.9021 56.9963 32.0006ZM1.53589 31.9922C1.53589 36.0149 1.52747 40.0377 1.53589 44.0689C1.54431 46.3748 2.56262 48.1422 4.54876 49.2951C11.5002 53.3263 18.4601 57.3491 25.42 61.355C27.4398 62.5164 29.5101 62.5164 31.5384 61.355C38.3383 57.4501 45.1215 53.5199 51.9131 49.6065C52.6789 49.1605 53.4195 48.6892 54.0086 48.0159C55.027 46.8377 55.4646 45.4491 55.4646 43.9174C55.473 36.3179 55.4646 28.7184 55.4646 21.1189C55.4646 20.5466 55.473 19.9744 55.4141 19.4021C55.2289 17.4075 54.3032 15.8674 52.62 14.8155C51.4923 14.1085 50.3225 13.4689 49.1695 12.8041C43.3289 9.42932 37.4799 6.06298 31.6309 2.68823C29.5606 1.49318 27.4735 1.45952 25.4032 2.64615C22.3314 4.37982 19.2765 6.16397 16.2047 7.93972C12.2661 10.212 8.31064 12.459 4.38886 14.7818C2.52054 15.8843 1.54431 17.6095 1.53589 19.7976C1.51906 23.8625 1.53589 27.9273 1.53589 31.9922Z" fill="#3474BA"/>
<path d="M1.53479 31.9916C1.53479 27.9267 1.51796 23.8619 1.54321 19.7886C1.56004 17.6005 2.52786 15.8836 4.39618 14.7727C8.30954 12.4584 12.265 10.2114 16.212 7.93067C19.2754 6.16335 22.3387 4.37919 25.4189 2.62028C27.4892 1.44206 29.5764 1.47573 31.6467 2.66236C37.4957 6.03711 43.3363 9.40345 49.1853 12.7782C50.3382 13.443 51.508 14.0827 52.6358 14.7896C54.3273 15.8416 55.2531 17.3817 55.4298 19.3762C55.4803 19.9485 55.4803 20.5208 55.4803 21.093C55.4803 28.6925 55.4887 36.292 55.4803 43.8916C55.4803 45.4232 55.0427 46.8118 54.0244 47.9901C53.4353 48.6717 52.6947 49.143 51.9288 49.5807C45.1372 53.494 38.3541 57.4242 31.5541 61.3292C29.5343 62.4906 27.4556 62.4906 25.4358 61.3292C18.4675 57.3232 11.5076 53.3005 4.56449 49.2693C2.56153 48.1415 1.54321 46.3742 1.53479 44.0683C1.52638 40.0455 1.53479 36.0143 1.53479 31.9916ZM2.62885 31.9831C2.62885 35.9975 2.62885 40.0034 2.62885 44.0178C2.62885 45.8945 3.42836 47.3589 5.0442 48.293C11.9873 52.3242 18.9387 56.3302 25.8902 60.3445C27.6576 61.3628 29.3912 61.3292 31.1417 60.3108C37.967 56.3638 44.7922 52.4168 51.6259 48.495C53.4773 47.4262 54.3778 45.8524 54.3778 43.7401C54.3778 36.1069 54.3778 28.4821 54.3778 20.849C54.3778 20.4029 54.3694 19.9569 54.3358 19.5109C54.1843 17.8361 53.4016 16.5737 51.9877 15.6985C51.0788 15.143 50.1447 14.6297 49.2273 14.0995C43.109 10.5648 36.9907 7.01335 30.8556 3.49553C29.2902 2.61186 27.666 2.6287 26.109 3.51236C22.8689 5.35543 19.6541 7.23216 16.4308 9.09206C12.6689 11.2633 8.90707 13.4262 5.1536 15.6059C3.46202 16.5906 2.62044 18.0718 2.62885 20.0411C2.63727 24.0218 2.62885 28.0024 2.62885 31.9831Z" fill="#FAFBFD"/>
<path d="M2.62891 31.9828C2.62891 28.0021 2.63732 24.013 2.62891 20.0323C2.62891 18.063 3.47049 16.5818 5.15366 15.5972C8.90712 13.4175 12.669 11.2546 16.4309 9.08332C19.6541 7.22342 22.8774 5.34669 26.1091 3.50362C27.666 2.61996 29.2903 2.60313 30.8388 3.48679C36.9739 6.99619 43.0923 10.5477 49.2106 14.0907C50.1279 14.6209 51.062 15.1343 51.971 15.6898C53.3848 16.565 54.1759 17.8358 54.319 19.5021C54.3611 19.9482 54.3611 20.3942 54.3611 20.8402C54.3611 28.4734 54.3611 36.0982 54.3611 43.7313C54.3611 45.8437 53.469 47.4175 51.6091 48.4863C44.7838 52.4165 37.9586 56.3635 31.1418 60.3105C29.3829 61.3288 27.6492 61.3625 25.8903 60.3442C18.9388 56.3298 11.9873 52.3239 5.05267 48.3011C3.43683 47.3586 2.63732 45.9026 2.63732 44.0259C2.62891 40.0115 2.62891 35.9972 2.62891 31.9828ZM16.7675 28.9194C16.8012 31.2001 17.4829 33.0853 18.8631 34.7011C19.1997 35.0967 19.5195 35.5511 20.0076 35.8036C20.319 35.9635 20.8071 35.8878 20.9334 35.6521C21.1017 35.3323 20.9249 35.0967 20.6977 34.8779C19.873 34.0699 19.1829 33.161 18.6947 32.1006C17.8279 30.1818 17.6343 28.2462 18.5348 26.2937C19.1408 24.9808 19.9992 23.8868 21.4888 23.5165C23.4076 23.0452 25.0908 23.5249 26.4962 24.9135C27.8343 26.2348 28.3561 26.2516 29.6606 24.9303C30.5527 24.0298 31.613 23.4828 32.8586 23.2977C34.0957 23.1209 35.2908 23.2977 36.2333 24.1897C38.5814 26.3947 39.1452 29.9967 37.6388 32.8412C37.5546 33.0011 37.4705 33.0937 37.2685 33.1105C36.4522 33.1947 35.6779 33.4724 34.9962 33.9269C34.6848 34.1289 34.5081 34.1036 34.2051 33.9016C33.0269 33.0853 31.7729 32.9422 30.4937 33.6744C29.4165 34.2972 28.7685 35.7952 28.9452 37.0828C29.0967 38.1937 29.5764 39.1363 30.3507 39.9274C30.5695 40.1546 30.6536 40.3061 30.3338 40.5417C29.6942 41.013 29.0631 41.5095 28.4824 42.0566C28.1541 42.3595 27.969 42.267 27.6997 42.0229C27.1106 41.4843 26.4962 40.9793 25.8819 40.466C25.6799 40.2892 25.4442 40.1883 25.1918 40.3482C24.9309 40.5165 24.7541 40.7521 24.8046 41.0888C24.8467 41.3749 24.9982 41.6105 25.2254 41.7957C25.9492 42.3932 26.673 42.9823 27.4051 43.5798C27.9606 44.0259 28.314 44.0175 28.8527 43.5546C29.6269 42.8897 30.4264 42.2501 31.1923 41.5685C31.4531 41.3328 31.6046 41.3749 31.8319 41.6189C32.4715 42.3175 33.1363 43.0076 33.8012 43.6892C34.323 44.2194 34.8027 44.211 35.316 43.664C35.6695 43.2853 36.0061 42.8897 36.3428 42.5026C37.3442 41.3496 38.4215 40.2724 39.3556 39.0605C40.7358 37.268 40.6012 34.7432 38.8591 33.464C38.6655 33.3209 38.7581 33.1947 38.8254 33.0348C39.9363 30.3754 39.8437 27.7412 38.5729 25.166C37.3695 22.7254 34.1967 21.4546 31.6215 22.3214C30.3254 22.7591 29.2987 23.6006 28.3393 24.5348C28.1373 24.7284 28.0363 24.7284 27.8428 24.5264C27.2284 23.8868 26.5467 23.3313 25.7809 22.8769C23.7358 21.665 21.3541 21.766 19.4858 23.2388C17.5923 24.7031 16.818 26.7313 16.7675 28.9194ZM9.71504 30.4595C8.95762 30.4595 8.20019 30.4595 7.44277 30.4595C6.93782 30.4595 6.70217 30.6531 6.70217 31.0487C6.70217 31.4526 6.93782 31.6546 7.43435 31.6546C8.95762 31.6546 10.4893 31.6546 12.0126 31.6546C12.5175 31.6546 12.7447 31.4694 12.7447 31.0571C12.7447 30.6279 12.5428 30.4595 12.021 30.4511C11.2551 30.4595 10.4809 30.4595 9.71504 30.4595ZM47.1908 31.663C47.9734 31.663 48.7645 31.663 49.5472 31.663C50.0101 31.663 50.2962 31.4105 50.2794 31.0402C50.2625 30.6699 50.0185 30.468 49.5556 30.4595C48.0155 30.4595 46.467 30.4595 44.9269 30.4595C44.4388 30.4595 44.1863 30.6784 44.2031 31.0739C44.2116 31.4526 44.4556 31.6546 44.9185 31.6546C45.6759 31.663 46.4333 31.663 47.1908 31.663ZM14.47 38.2779C14.4784 38.017 14.3522 37.8571 14.1502 37.7561C13.9398 37.6467 13.7126 37.6551 13.519 37.815C12.2566 38.8754 10.9942 39.9358 9.74029 41.0046C9.4794 41.2234 9.47098 41.6021 9.68979 41.8378C9.92544 42.0818 10.2032 42.1071 10.4893 41.9387C10.5819 41.8798 10.666 41.8041 10.7586 41.7368C11.9032 40.7689 13.0393 39.8011 14.1839 38.8417C14.3606 38.6818 14.4868 38.5051 14.47 38.2779ZM14.024 24.5432C14.2933 24.5769 14.4952 24.4675 14.5962 24.215C14.7056 23.9204 14.6299 23.668 14.3858 23.466C13.174 22.4561 11.9621 21.4462 10.7502 20.4363C10.4304 20.167 10.0853 20.1838 9.85811 20.4447C9.61405 20.7224 9.64771 21.0843 9.98435 21.362C11.1794 22.3635 12.3829 23.365 13.5863 24.3665C13.7126 24.4759 13.8472 24.5769 14.024 24.5432ZM46.9972 19.9061C46.7868 19.9061 46.6353 20.0155 46.4923 20.1333C45.3056 21.1348 44.119 22.1279 42.9408 23.1294C42.621 23.3987 42.5621 23.7858 42.7893 24.0467C43.0333 24.3328 43.3616 24.3328 43.715 24.0467C44.3462 23.5165 44.9774 22.9947 45.6086 22.4645C46.1725 21.9848 46.7363 21.5051 47.3002 21.0338C47.5358 20.8318 47.6368 20.5878 47.5274 20.2848C47.4517 20.0239 47.2413 19.9229 46.9972 19.9061ZM47.5779 41.5853C47.6116 41.4086 47.5358 41.2402 47.3675 41.1056C46.1388 40.0957 44.9185 39.0774 43.6814 38.0675C43.3279 37.7813 42.9997 37.815 42.764 38.1095C42.5368 38.4041 42.6041 38.7239 42.9492 39.01C43.3784 39.3635 43.8076 39.717 44.2452 40.0788C45.0195 40.7185 45.7937 41.3581 46.568 42.0061C46.7784 42.1828 47.014 42.2249 47.2749 42.1239C47.4853 42.0313 47.5695 41.8462 47.5779 41.5853ZM22.8942 37.2259C22.4566 37.2343 22.1284 37.5878 22.1284 38.0506C22.1284 38.5303 22.4819 38.9006 22.9363 38.8838C23.3824 38.867 23.7274 38.4798 23.7022 38.0086C23.6853 37.5457 23.3403 37.2175 22.8942 37.2259Z" fill="#3373B9"/>
<path d="M16.7686 28.9204C16.8275 26.7323 17.6017 24.7041 19.4785 23.2313C21.3468 21.7585 23.7285 21.6575 25.7735 22.8694C26.5393 23.3239 27.221 23.8793 27.8354 24.5189C28.0205 24.7125 28.1299 24.7209 28.3319 24.5273C29.2913 23.5932 30.3181 22.7516 31.6141 22.314C34.1893 21.4387 37.3621 22.7095 38.5656 25.1585C39.828 27.7338 39.9205 30.3679 38.8181 33.0273C38.7507 33.1872 38.6582 33.3135 38.8517 33.4565C40.5854 34.7273 40.7284 37.2605 39.3482 39.0531C38.4141 40.265 37.3369 41.3422 36.3354 42.4952C35.9987 42.8823 35.6537 43.2778 35.3086 43.6565C34.7953 44.2036 34.3156 44.212 33.7938 43.6818C33.1289 43.0001 32.4641 42.3184 31.8245 41.6115C31.5973 41.3674 31.4542 41.3254 31.1849 41.561C30.419 42.2343 29.628 42.8823 28.8453 43.5471C28.3067 44.01 27.9532 44.0184 27.3978 43.5724C26.674 42.9833 25.9502 42.3857 25.2181 41.7882C24.9908 41.6031 24.8478 41.3759 24.7973 41.0813C24.7468 40.7447 24.9235 40.509 25.1844 40.3407C25.4369 40.1808 25.6725 40.2902 25.8745 40.4585C26.4804 40.9719 27.1032 41.4768 27.6923 42.0155C27.97 42.2595 28.1468 42.3605 28.475 42.0491C29.0557 41.5105 29.6869 41.0056 30.3265 40.5343C30.6463 40.2986 30.5705 40.1471 30.3433 39.9199C29.569 39.1204 29.0893 38.1862 28.9379 37.0754C28.7611 35.7961 29.4091 34.2897 30.4864 33.6669C31.7656 32.9348 33.0195 33.0694 34.1978 33.8942C34.4923 34.1046 34.6775 34.1298 34.9888 33.9194C35.6705 33.465 36.4364 33.1872 37.2611 33.1031C37.4631 33.0778 37.5473 32.9853 37.6314 32.8338C39.1463 29.9892 38.5824 26.3872 36.226 24.1823C35.2834 23.2986 34.0883 23.1135 32.8512 23.2902C31.6141 23.4669 30.5453 24.0224 29.6532 24.9229C28.3487 26.2442 27.8354 26.2273 26.4888 24.9061C25.0834 23.5174 23.4002 23.0293 21.4814 23.509C19.9918 23.8793 19.1334 24.9734 18.5275 26.2863C17.6354 28.2387 17.8205 30.1744 18.6874 32.0932C19.1671 33.1536 19.8572 34.0625 20.6903 34.8704C20.9176 35.0892 21.0943 35.3249 20.926 35.6447C20.7997 35.8803 20.32 35.956 20.0002 35.7961C19.5121 35.5437 19.2007 35.0976 18.8557 34.6937C17.4839 33.0863 16.8022 31.1927 16.7686 28.9204ZM38.5908 36.865C38.5824 36.7219 38.5824 36.5872 38.5487 36.4442C38.3973 35.7625 38.1448 35.1397 37.4379 34.8704C36.773 34.6179 36.2007 34.862 35.6874 35.2828C34.5428 36.2338 34.4839 36.2338 33.3478 35.266C32.3126 34.3823 31.0418 34.7189 30.621 36.015C30.3096 36.966 30.4864 37.8412 31.1933 38.5818C32.2116 39.6422 33.2468 40.6858 34.2651 41.7546C34.4586 41.9565 34.5765 41.9818 34.7869 41.763C35.8304 40.6689 36.8992 39.5917 37.9428 38.506C38.372 38.0516 38.5572 37.4877 38.5908 36.865Z" fill="#FBFCFD"/>
<path d="M9.71637 30.4605C10.4906 30.4605 11.2565 30.4605 12.0307 30.4605C12.5525 30.4605 12.7545 30.6372 12.7545 31.0665C12.7545 31.4788 12.5273 31.664 12.0223 31.664C10.499 31.664 8.96736 31.664 7.44409 31.664C6.94756 31.664 6.71191 31.4536 6.71191 31.058C6.71191 30.6625 6.94756 30.4689 7.45251 30.4689C8.20152 30.4605 8.95894 30.4605 9.71637 30.4605Z" fill="#F8FAFC"/>
<path d="M47.1919 31.664C46.4345 31.664 45.6771 31.664 44.9197 31.664C44.4568 31.664 44.2127 31.4536 44.2043 31.0833C44.1959 30.6877 44.44 30.4689 44.9281 30.4689C46.4682 30.4689 48.0167 30.4689 49.5568 30.4689C50.0197 30.4689 50.2721 30.6709 50.2805 31.0496C50.2974 31.4199 50.0028 31.664 49.5484 31.6724C48.7573 31.664 47.9746 31.664 47.1919 31.664Z" fill="#F8FAFC"/>
<path d="M14.4707 38.2788C14.4875 38.506 14.3613 38.6828 14.1845 38.8342C13.04 39.8021 11.9038 40.7699 10.7593 41.7293C10.6751 41.805 10.591 41.8724 10.49 41.9313C10.2038 42.108 9.92612 42.0828 9.69048 41.8303C9.47166 41.5946 9.48008 41.2243 9.74097 40.9971C10.9949 39.9283 12.2657 38.8679 13.5197 37.8075C13.7132 37.6392 13.9321 37.6392 14.1509 37.7486C14.3444 37.8496 14.4791 38.0179 14.4707 38.2788Z" fill="#F9FBFC"/>
<path d="M14.0247 24.5442C13.8396 24.5778 13.7133 24.4768 13.5787 24.3674C12.3752 23.366 11.1717 22.3645 9.9767 21.363C9.64848 21.0853 9.6064 20.7234 9.85046 20.4457C10.0777 20.1848 10.4227 20.1763 10.7425 20.4372C11.9544 21.4471 13.1663 22.457 14.3782 23.4669C14.6222 23.6689 14.698 23.9214 14.5886 24.216C14.5044 24.4684 14.3024 24.5778 14.0247 24.5442Z" fill="#FAFBFD"/>
<path d="M46.9981 19.907C47.2338 19.9239 47.4442 20.0249 47.5367 20.2773C47.6461 20.5803 47.5451 20.8244 47.3095 21.0264C46.7456 21.5061 46.1818 21.9858 45.6179 22.457C44.9867 22.9872 44.3555 23.5174 43.7244 24.0392C43.3709 24.3338 43.0511 24.3254 42.7986 24.0392C42.5714 23.7699 42.6219 23.3912 42.9501 23.1219C44.1367 22.1204 45.315 21.1189 46.5016 20.1259C46.6362 20.0164 46.7877 19.907 46.9981 19.907Z" fill="#F9FBFC"/>
<path d="M47.5787 41.5862C47.5787 41.8555 47.4862 42.0323 47.2674 42.1248C47.0149 42.2258 46.7792 42.1837 46.5604 42.007C45.7862 41.3674 45.0119 40.7194 44.2377 40.0798C43.8085 39.7263 43.3792 39.3729 42.9416 39.011C42.5966 38.7248 42.5292 38.405 42.7565 38.1105C42.9921 37.8075 43.3203 37.7738 43.6738 38.0684C44.9109 39.0783 46.1312 40.0966 47.3599 41.1065C47.5283 41.2412 47.604 41.4095 47.5787 41.5862Z" fill="#FAFBFD"/>
<path d="M22.8945 37.2268C23.3404 37.2184 23.6853 37.5465 23.7021 38.0093C23.7274 38.4804 23.3824 38.8674 22.9366 38.8842C22.4907 38.901 22.1289 38.5309 22.1289 38.0513C22.1289 37.5886 22.457 37.2353 22.8945 37.2268Z" fill="#FAFBFC"/>
<path d="M38.5909 36.8649C38.5572 37.4877 38.3721 38.0516 37.9344 38.506C36.8909 39.6001 35.8221 40.6689 34.7785 41.763C34.5681 41.9818 34.4503 41.9565 34.2567 41.7545C33.2384 40.6941 32.2033 39.6422 31.1849 38.5818C30.478 37.8496 30.3097 36.9743 30.6127 36.0149C31.0335 34.7189 32.3042 34.3823 33.3394 35.2659C34.4755 36.2337 34.5344 36.2337 35.679 35.2828C36.1924 34.862 36.7646 34.6179 37.4295 34.8704C38.1364 35.1397 38.3889 35.7625 38.5404 36.4441C38.5825 36.5788 38.574 36.7219 38.5909 36.8649Z" fill="#3373B9"/>
</svg>
