<svg width="57" height="65" viewBox="0 0 57 65" fill="none" xmlns="http://www.w3.org/2000/svg">
<path d="M56.9962 32.0251C56.9962 36.4005 57.0047 40.7758 56.9962 45.1511C56.9877 47.3176 56.0447 49.0082 54.2011 50.1212C51.6863 51.6334 49.1206 53.0692 46.5719 54.5475C41.5763 57.4276 36.5893 60.3161 31.5938 63.1877C29.6312 64.3177 27.6007 64.4196 25.6212 63.2897C19.1899 59.611 12.7841 55.9068 6.37822 52.1942C5.0104 51.4041 3.56611 50.7159 2.30024 49.7729C0.796482 48.6514 0.00637185 47.1052 0.00637185 45.2106C-0.00212395 36.4769 -0.00212395 27.7347 0.00637185 19.0011C0.00637185 16.7497 1.00888 15.0165 2.93742 13.8866C6.08087 12.0345 9.24981 10.2419 12.4102 8.41529C16.7771 5.89203 21.1354 3.35179 25.5193 0.854021C27.4733 -0.258929 29.4953 -0.301408 31.4493 0.828534C39.0191 5.17839 46.5889 9.53673 54.1331 13.9291C56.0022 15.0165 56.9877 16.7157 56.9962 18.9076C57.0047 23.2744 56.9962 27.6498 56.9962 32.0251ZM1.5696 44.9472C1.51862 44.9557 1.45915 44.9642 1.45915 45.0322C1.45915 45.1002 1.51862 45.1002 1.5696 45.1087C1.94342 46.9862 2.92043 48.439 4.59411 49.399C11.5522 53.4091 18.5017 57.4276 25.4598 61.4291C27.4733 62.5845 29.5293 62.5845 31.5428 61.4291C38.5178 57.4191 45.4759 53.4091 52.434 49.3736C54.3625 48.2521 55.4415 46.5614 55.45 44.3101C55.4755 36.1711 55.4585 28.0236 55.4585 19.8846C55.4585 17.7777 54.5579 16.1125 52.8078 14.9571C51.8053 14.2944 50.7433 13.7337 49.6983 13.1305C43.6153 9.61319 37.5408 6.10443 31.4493 2.59566C30.1495 1.84803 28.7562 1.64413 27.2779 1.93299C26.165 2.15388 25.2474 2.75708 24.2959 3.30931C17.8815 7.00498 11.4672 10.7092 5.05288 14.4133C4.35622 14.8126 3.66806 15.2289 3.11584 15.8321C2.30024 16.7242 1.81598 17.7692 1.5696 18.9416C1.51862 18.9501 1.45915 18.9586 1.45915 19.018C1.45915 19.086 1.51862 19.0945 1.5696 19.103C1.5611 19.2814 1.53562 19.4683 1.53562 19.6467C1.53562 27.8962 1.53562 36.1371 1.53562 44.3865C1.53562 44.5819 1.5611 44.7688 1.5696 44.9472Z" fill="#D12F2D"/>
<path d="M1.57832 18.9501C1.8247 17.7777 2.30046 16.7242 3.12455 15.8406C3.67678 15.2374 4.36494 14.8211 5.0616 14.4218C11.4759 10.7176 17.8903 7.02197 24.3046 3.3178C25.2561 2.76557 26.1822 2.16237 27.2866 1.94148C28.7649 1.65262 30.1582 1.85652 31.4581 2.60415C37.5411 6.10442 43.624 9.62168 49.707 13.1389C50.7435 13.7421 51.814 14.3029 52.8165 14.9655C54.5666 16.121 55.4587 17.7861 55.4672 19.8931C55.4757 28.0321 55.4842 36.1796 55.4587 44.3185C55.4502 46.5699 54.3712 48.2691 52.4427 49.382C45.4846 53.4175 38.5181 57.4361 31.5515 61.4376C29.538 62.593 27.482 62.593 25.4685 61.4376C18.502 57.4276 11.5524 53.4091 4.59433 49.4075C2.92066 48.439 1.94364 46.9947 1.56982 45.1171C1.56982 45.0577 1.56982 45.0067 1.56133 44.9472C1.55283 44.7688 1.52734 44.5819 1.52734 44.4035C1.52734 36.1541 1.52734 27.9131 1.52734 19.6637C1.52734 19.4853 1.55283 19.2984 1.56133 19.12C1.56982 19.0605 1.57832 19.0095 1.57832 18.9501ZM2.69976 19.2899C2.58082 19.4428 2.6318 19.6127 2.6318 19.7827C2.6318 27.9641 2.6318 36.1541 2.6318 44.3355C2.6318 44.4885 2.58082 44.6499 2.69127 44.7858C2.88667 46.383 3.69377 47.5979 5.07859 48.388C12.0451 52.4235 19.0202 56.4506 25.9953 60.4691C27.6519 61.4206 29.3341 61.4291 30.9908 60.4776C34.8989 58.2347 38.7984 55.9663 42.698 53.7149C45.816 51.9138 48.9509 50.1382 52.0519 48.3031C53.5726 47.4025 54.3542 46.0007 54.3542 44.2166C54.3627 36.0606 54.3627 27.9131 54.3542 19.7572C54.3542 18.3469 53.7595 17.1914 52.7061 16.2654C51.9329 15.5857 50.9984 15.1694 50.1148 14.6597C43.794 10.998 37.4646 7.3533 31.1437 3.70011C29.3851 2.68061 27.6519 2.66362 25.8933 3.68312C21.9682 5.95999 18.0347 8.21138 14.1096 10.4798C11.0511 12.2469 7.98415 13.997 4.94266 15.7981C3.6343 16.5628 2.86968 17.7437 2.69976 19.2899Z" fill="#FDFAFA"/>
<path d="M1.57793 18.9501C1.57793 19.0095 1.56943 19.0605 1.56943 19.12C1.51845 19.1115 1.45898 19.103 1.45898 19.035C1.46748 18.9671 1.52695 18.9586 1.57793 18.9501Z" fill="#CE201E"/>
<path d="M1.56956 44.9472C1.56956 45.0067 1.56956 45.0577 1.57806 45.1172C1.52708 45.1087 1.46761 45.1002 1.46761 45.0407C1.45912 44.9642 1.51859 44.9557 1.56956 44.9472Z" fill="#CE201E"/>
<path d="M2.6999 19.2899C2.86982 17.7522 3.63444 16.5713 4.95129 15.7981C7.99279 14.0055 11.0598 12.2469 14.1183 10.4798C18.0433 8.21138 21.9769 5.9515 25.9019 3.68312C27.6606 2.66362 29.3937 2.68062 31.1523 3.70011C37.4732 7.3618 43.8026 11.0065 50.1235 14.6597C50.9985 15.1694 51.9416 15.5857 52.7147 16.2654C53.7597 17.1914 54.3629 18.3554 54.3629 19.7572C54.3714 27.9132 54.3714 36.0606 54.3629 44.2166C54.3629 46.0007 53.5728 47.4025 52.0605 48.3031C48.9595 50.1382 45.8246 51.9138 42.7066 53.7149C38.8071 55.9663 34.9075 58.2347 30.9994 60.4776C29.3427 61.4291 27.6606 61.4206 26.0039 60.4691C19.0288 56.4506 12.0538 52.4235 5.08722 48.388C3.69391 47.5894 2.88681 46.383 2.69141 44.7858C2.84433 44.6669 2.78486 44.497 2.78486 44.3525C2.78486 36.1456 2.78486 27.9386 2.78486 19.7317C2.78486 19.5788 2.84433 19.4089 2.6999 19.2899ZM17.3127 33.8262C17.2872 33.6393 17.3467 33.291 17.4146 32.9427C18.1198 29.5528 21.739 27.7177 24.806 30.3939C25.7405 31.2095 26.4287 32.195 27.0149 33.2655C27.2443 33.6733 27.6011 33.8347 28.0259 33.8347C28.4337 33.8347 28.731 33.6393 28.9179 33.24C29.2493 32.5519 29.6656 31.9147 30.1498 31.32C32.2738 28.6948 35.2303 28.202 37.8725 30.0286C39.1894 30.9377 39.903 32.1695 39.7161 33.8177C39.5972 34.8627 39.1894 35.8058 38.6711 36.7063C37.4138 38.8982 35.6636 40.6569 33.7181 42.2286C33.0809 42.7468 32.4012 43.2056 31.7301 43.6729C31.4667 43.8598 31.2713 44.1231 31.4667 44.4715C31.6111 44.7263 31.9934 44.7603 32.3418 44.5564C32.4012 44.5224 32.4607 44.48 32.5202 44.4375C33.7436 43.6474 34.8905 42.7468 35.9525 41.7528C37.5242 40.2745 38.9345 38.6518 39.903 36.6978C40.4383 35.6188 40.8036 34.4974 40.7696 33.2825C40.7271 31.7533 40.0814 30.4704 38.8495 29.5783C38.2803 29.1705 38.2463 28.8307 38.3738 28.202C38.7136 26.4689 39.0449 24.7357 39.8605 23.147C40.039 22.7987 39.92 22.4249 39.6312 22.2465C39.3168 22.051 38.892 22.1445 38.6541 22.4503C38.4587 22.6967 38.2718 22.9431 38.0679 23.1725C37.9065 23.3509 37.7961 23.3509 37.6941 23.079C37.4562 22.4673 37.0314 22.3654 36.5047 22.7732C36.2583 22.9601 36.0289 23.181 35.7656 23.3424C35.2048 23.6822 34.7886 23.5123 34.5847 22.9006C34.4997 22.6458 34.4912 22.3739 34.4657 22.1105C34.4062 21.4139 33.8965 21.1675 33.3018 21.5498C33.1149 21.6687 32.945 21.8302 32.7581 21.9491C32.2993 22.2465 31.832 22.4758 31.2543 22.3824C30.4047 22.2465 30.0309 21.6178 29.742 20.9296C29.4787 20.3094 29.2748 19.6552 29.0369 19.0265C28.9434 18.7802 28.8075 18.5678 28.4932 18.5593C28.1703 18.5508 28.0089 18.7717 27.8815 19.0096C27.5926 19.5533 27.4652 20.148 27.2613 20.7257C27.1083 21.159 26.9469 21.5753 26.6581 21.9321C26.2927 22.3824 25.834 22.5863 25.2393 22.4673C24.6106 22.3399 24.1688 21.9236 23.676 21.5753C23.1663 21.21 22.5801 21.4563 22.4696 22.0765C22.4526 22.187 22.4696 22.3059 22.4441 22.4164C22.3422 22.8836 22.1808 23.3254 21.6625 23.4953C21.1613 23.6568 20.9149 23.2999 20.6515 22.9856C20.1673 22.4164 19.6405 22.4503 19.2582 23.1045C19.1053 23.3679 18.9779 23.3509 18.8164 23.1555C18.638 22.9346 18.4766 22.7052 18.2982 22.4843C17.9329 22.0256 17.3212 22.102 17.0493 22.6203C16.9049 22.9091 16.9729 23.164 17.1088 23.4274C17.644 24.4639 17.9839 25.5683 18.2217 26.7067C18.3747 27.4544 18.3917 28.219 18.6635 28.9411C18.74 29.145 18.5701 29.179 18.4681 29.2555C17.8989 29.6973 17.4231 30.207 17.0578 30.8272C16.0128 32.5858 16.0638 34.4464 16.6585 36.3155C17.3891 38.6179 18.7994 40.5039 20.4646 42.2116C22.1468 43.9362 24.0668 45.3465 26.1823 46.4765C27.3122 47.0882 28.4677 47.6574 29.7081 48.0312C30.1244 48.1586 30.5831 47.9378 30.7021 47.5979C30.804 47.2921 30.6086 47.0457 30.1074 46.8588C28.765 46.3745 27.4652 45.7883 26.2248 45.0662C23.2343 43.3415 20.643 41.1751 18.774 38.2355C17.9669 36.9357 17.3382 35.5679 17.3127 33.8262ZM30.838 39.9772C30.753 39.8922 30.6851 39.9517 30.6171 39.9942C30.2093 40.2236 29.793 40.436 29.3937 40.6654C29.1049 40.8353 28.8415 41.0562 28.5696 40.6314C28.5017 40.5294 28.3402 40.4615 28.2043 40.436C27.9749 40.3935 27.9239 40.266 27.9324 40.0537C27.9409 38.9832 27.9409 37.9042 27.9324 36.8337C27.9324 36.7063 27.9664 36.5704 27.8475 36.4174C27.72 36.5874 27.754 36.7488 27.754 36.8932C27.754 37.9127 27.7455 38.9322 27.7625 39.9432C27.771 40.2321 27.7031 40.3765 27.3972 40.4784C26.8705 40.6569 26.5986 41.2516 26.7345 41.7868C26.879 42.356 27.3717 42.6958 27.9664 42.6534C28.4762 42.6194 28.9944 42.2031 28.9519 41.7188C28.901 41.1666 29.1643 40.9542 29.5891 40.7588C29.9629 40.5889 30.3028 40.368 30.6596 40.1641C30.7445 40.1386 30.872 40.1216 30.838 39.9772ZM39.2403 20.7002C39.2319 21.2524 39.6312 21.6348 40.2089 21.6348C40.7696 21.6348 41.2539 21.1505 41.2624 20.5898C41.2708 20.046 40.8546 19.6128 40.3193 19.6212C39.7586 19.6212 39.2488 20.1395 39.2403 20.7002ZM17.7545 20.5388C17.7545 20.0036 17.3467 19.6043 16.8199 19.6212C16.2507 19.6382 15.741 20.1565 15.741 20.7257C15.741 21.2355 16.1658 21.6348 16.7095 21.6348C17.2957 21.6348 17.763 21.1505 17.7545 20.5388ZM28.5186 16.0615C27.9494 16.0615 27.4227 16.5628 27.4142 17.115C27.4057 17.6162 27.873 18.075 28.3997 18.075C28.9434 18.0665 29.4787 17.5143 29.4702 16.9706C29.4617 16.4438 29.0624 16.0615 28.5186 16.0615Z" fill="#D12E2C"/>
<path d="M2.69983 19.2899C2.84426 19.4174 2.78479 19.5788 2.78479 19.7317C2.78479 27.9386 2.78479 36.1456 2.78479 44.3525C2.78479 44.497 2.84426 44.6669 2.69133 44.7858C2.58089 44.6499 2.63186 44.4885 2.63186 44.3355C2.63186 36.1541 2.63186 27.9641 2.63186 19.7827C2.63186 19.6128 2.58089 19.4343 2.69983 19.2899Z" fill="#D53F3E"/>
<path d="M17.3121 33.8262C17.3376 35.5679 17.9663 36.9357 18.7819 38.2271C20.6509 41.1751 23.2421 43.333 26.2327 45.0577C27.4731 45.7713 28.7729 46.3575 30.1153 46.8503C30.608 47.0287 30.8119 47.2836 30.71 47.5894C30.591 47.9208 30.1322 48.1417 29.7159 48.0227C28.4756 47.6489 27.3286 47.0712 26.1902 46.468C24.0747 45.3295 22.1462 43.9192 20.4725 42.2031C18.8073 40.4954 17.4055 38.6094 16.6664 36.307C16.0717 34.4379 16.0207 32.5858 17.0657 30.8187C17.431 30.207 17.9068 29.6888 18.476 29.247C18.578 29.1705 18.7479 29.1365 18.6714 28.9326C18.3995 28.2105 18.3825 27.4374 18.2296 26.6982C18.0002 25.5598 17.6519 24.4554 17.1167 23.4189C16.9807 23.1555 16.9043 22.9006 17.0572 22.6118C17.3291 22.085 17.9323 22.0171 18.3061 22.4758C18.4845 22.6967 18.6374 22.9346 18.8243 23.147C18.9858 23.3424 19.1132 23.3594 19.2661 23.096C19.6399 22.4419 20.1667 22.3994 20.6594 22.9771C20.9313 23.2914 21.1692 23.6483 21.6704 23.4868C22.1887 23.3169 22.3501 22.8836 22.452 22.4079C22.4775 22.2974 22.4605 22.1785 22.4775 22.068C22.5965 21.4478 23.1742 21.2015 23.6839 21.5668C24.1767 21.9151 24.627 22.3399 25.2472 22.4588C25.8419 22.5778 26.2921 22.3739 26.666 21.9236C26.9548 21.5668 27.1247 21.1505 27.2692 20.7172C27.4731 20.148 27.6005 19.5448 27.8893 19.0011C28.0168 18.7632 28.1782 18.5423 28.501 18.5508C28.8154 18.5593 28.9513 18.7717 29.0448 19.018C29.2827 19.6467 29.4866 20.3009 29.7499 20.9211C30.0388 21.6093 30.4126 22.238 31.2622 22.3739C31.8399 22.4673 32.3072 22.2295 32.7659 21.9406C32.9529 21.8217 33.1228 21.6602 33.3097 21.5413C33.9044 21.159 34.4141 21.4054 34.4736 22.102C34.4991 22.3739 34.4991 22.6373 34.5925 22.8921C34.7964 23.5123 35.2127 23.6737 35.7735 23.3339C36.0368 23.1725 36.2662 22.9516 36.5126 22.7647C37.0393 22.3569 37.4726 22.4588 37.702 23.0705C37.804 23.3424 37.9229 23.3424 38.0758 23.164C38.2797 22.9346 38.4666 22.6882 38.662 22.4419C38.9084 22.136 39.3332 22.0425 39.639 22.238C39.9194 22.4164 40.0468 22.7902 39.8684 23.1385C39.0528 24.7357 38.7215 26.4604 38.3817 28.1935C38.2627 28.8222 38.2967 29.162 38.8574 29.5698C40.0893 30.4619 40.735 31.7363 40.7775 33.274C40.8115 34.4889 40.4461 35.6188 39.9109 36.6893C38.9424 38.6433 37.5406 40.266 35.9604 41.7443C34.8984 42.7383 33.7515 43.6389 32.5281 44.429C32.4686 44.4715 32.4091 44.514 32.3496 44.5479C32.0013 44.7518 31.619 44.7179 31.4746 44.463C31.2792 44.1147 31.4746 43.8513 31.738 43.6644C32.4091 43.1971 33.0888 42.7383 33.726 42.2201C35.6715 40.6484 37.4216 38.8897 38.679 36.6978C39.1973 35.7973 39.6051 34.8457 39.724 33.8092C39.9109 32.1611 39.2058 30.9377 37.8804 30.0201C35.2297 28.1935 32.2732 28.6948 30.1577 31.3115C29.6735 31.9062 29.2572 32.5434 28.9258 33.2315C28.7389 33.6223 28.4416 33.8262 28.0338 33.8262C27.609 33.8262 27.2437 33.6648 27.0228 33.257C26.4366 32.1865 25.7484 31.201 24.8139 30.3854C21.7469 27.7093 18.1277 29.5443 17.4225 32.9342C17.3461 33.291 17.2866 33.6393 17.3121 33.8262ZM27.9233 32.1101C28.4671 31.3115 29.0363 30.5723 29.7244 29.9436C31.4916 28.3294 33.5136 27.5903 35.9094 28.117C36.1728 28.1765 36.5041 28.3719 36.6655 28.27C36.8779 28.134 36.725 27.7517 36.793 27.4799C36.8014 27.4374 36.8184 27.3949 36.8269 27.3609C36.9544 26.5453 37.2262 25.7722 37.4811 24.9991C37.5151 24.9056 37.651 24.7527 37.4896 24.7187C37.1753 24.6423 36.9204 24.3619 36.5126 24.5828C35.3572 25.203 34.0488 24.8292 33.3267 23.7247C33.1822 23.5123 33.0888 23.4613 32.8339 23.5548C31.738 23.9796 30.71 23.8097 29.7414 23.164C29.2232 22.8157 28.8324 22.3314 28.4331 21.8217C28.3736 21.9066 28.3311 21.9576 28.2972 22.0086C27.3881 23.4613 25.6635 24.4044 23.8199 23.4274C23.6499 23.3339 23.6075 23.4274 23.531 23.5378C22.588 24.8292 21.56 25.101 20.0647 24.4554C19.7929 24.3364 19.6059 24.5318 19.402 24.5998C19.2576 24.6508 19.419 24.8462 19.4615 24.9651C19.8438 26.0016 20.1497 27.0551 20.1327 28.1765C20.1242 28.4484 20.2686 28.3889 20.43 28.3549C22.3416 27.9216 24.0323 28.4314 25.57 29.5783C26.4875 30.2665 27.2267 31.1331 27.9233 32.1101Z" fill="#FDFAFA"/>
<path d="M30.8377 39.9772C30.8632 40.1216 30.7443 40.1301 30.6678 40.1726C30.311 40.3765 29.9711 40.5974 29.5973 40.7673C29.1725 40.9627 28.9092 41.1751 28.9601 41.7273C29.0026 42.2116 28.4844 42.6194 27.9746 42.6619C27.3714 42.7044 26.8787 42.356 26.7427 41.7953C26.6068 41.2601 26.8787 40.6654 27.4054 40.487C27.7028 40.385 27.7707 40.2406 27.7707 39.9517C27.7537 38.9322 27.7622 37.9127 27.7622 36.9017C27.7622 36.7573 27.7198 36.6044 27.8557 36.426C27.9746 36.5789 27.9406 36.7148 27.9406 36.8423C27.9406 37.9127 27.9491 38.9917 27.9406 40.0622C27.9406 40.2746 27.9831 40.402 28.2125 40.4445C28.3484 40.47 28.5099 40.5379 28.5778 40.6399C28.8497 41.0732 29.1131 40.8438 29.4019 40.6739C29.8012 40.436 30.2175 40.2236 30.6253 40.0027C30.6933 39.9517 30.7613 39.9007 30.8377 39.9772Z" fill="#FDF8F7"/>
<path d="M39.2404 20.7002C39.2489 20.1395 39.7671 19.6212 40.3193 19.6127C40.8546 19.6127 41.2794 20.0375 41.2624 20.5813C41.2539 21.142 40.7611 21.6262 40.2089 21.6262C39.6312 21.6347 39.2319 21.2524 39.2404 20.7002Z" fill="#FDF8F8"/>
<path d="M17.7544 20.5388C17.7544 21.1505 17.2957 21.6347 16.7009 21.6262C16.1572 21.6262 15.7324 21.2269 15.7324 20.7172C15.7324 20.148 16.2422 19.6297 16.8114 19.6127C17.3551 19.6042 17.7544 20.0036 17.7544 20.5388Z" fill="#FDF9F9"/>
<path d="M28.5186 16.0615C29.0624 16.0615 29.4617 16.4438 29.4702 16.9706C29.4787 17.5143 28.9434 18.0665 28.3997 18.075C27.8729 18.0835 27.4057 17.6248 27.4142 17.115C27.4227 16.5628 27.9494 16.0615 28.5186 16.0615Z" fill="#FDFAFA"/>
<path d="M27.9236 32.1101C27.227 31.1331 26.4878 30.2665 25.5618 29.5783C24.0241 28.4314 22.3334 27.9216 20.4218 28.3549C20.2604 28.3889 20.1245 28.4484 20.1245 28.1765C20.15 27.0551 19.8441 26.0016 19.4533 24.9651C19.4108 24.8462 19.2494 24.6508 19.3938 24.5998C19.5977 24.5318 19.7931 24.3364 20.0565 24.4554C21.5433 25.101 22.5798 24.8292 23.5228 23.5378C23.5993 23.4274 23.6417 23.3339 23.8117 23.4274C25.6552 24.4044 27.3799 23.4613 28.2889 22.0086C28.3229 21.9491 28.3654 21.8981 28.4249 21.8217C28.8242 22.3314 29.2065 22.8157 29.7332 23.164C30.7018 23.8182 31.7297 23.9796 32.8257 23.5548C33.0721 23.4613 33.174 23.5038 33.3185 23.7247C34.0406 24.8292 35.349 25.1945 36.5044 24.5828C36.9122 24.3619 37.1671 24.6423 37.4814 24.7187C37.6428 24.7527 37.4984 24.9141 37.4729 24.9991C37.218 25.7807 36.9547 26.5538 36.8187 27.3609C36.8102 27.4034 36.7932 27.4459 36.7847 27.4799C36.7168 27.7517 36.8697 28.134 36.6573 28.27C36.4959 28.3719 36.1646 28.1765 35.9012 28.117C33.5054 27.5903 31.4834 28.3294 29.7162 29.9436C29.0281 30.5723 28.4589 31.3115 27.9236 32.1101ZM28.4079 29.247C28.5523 29.2555 28.7137 29.247 28.8497 29.1111C29.7162 28.219 30.158 27.174 30.0901 25.9081C30.0476 25.1435 29.5208 24.4554 28.4419 24.4384C27.5838 24.4299 26.8447 25.135 26.7937 26.0016C26.7682 26.3924 26.7937 26.7917 26.8956 27.174C27.0655 27.7857 27.3884 28.304 27.7197 28.8307C27.8896 29.1196 28.0681 29.264 28.4079 29.247Z" fill="#D12F2D"/>
<path d="M28.4078 29.247C28.0679 29.264 27.8895 29.1195 27.7196 28.8392C27.3883 28.3124 27.0654 27.7942 26.8955 27.1825C26.7851 26.7917 26.7681 26.4009 26.7936 26.0101C26.8445 25.1435 27.5837 24.4384 28.4418 24.4469C29.5207 24.4553 30.0475 25.152 30.0899 25.9166C30.1664 27.1825 29.7161 28.2275 28.8496 29.1195C28.7136 29.247 28.5522 29.2555 28.4078 29.247ZM29.2319 26.3754C29.2319 26.3074 29.2404 26.231 29.2319 26.163C29.1639 25.6108 28.892 25.237 28.5352 25.2285C28.1784 25.2115 27.8471 25.5428 27.7026 26.0611C27.4987 26.8172 27.7876 27.4968 28.0764 28.168C28.1614 28.3719 28.3738 28.3974 28.5182 28.202C28.9005 27.6413 29.1554 27.0381 29.2319 26.3754Z" fill="#FDF8F8"/>
<path d="M29.2315 26.3754C29.1551 27.0466 28.8917 27.6498 28.5179 28.1935C28.382 28.3974 28.1696 28.3719 28.0761 28.1595C27.7873 27.4884 27.4984 26.8087 27.7023 26.0526C27.8467 25.5343 28.1696 25.203 28.5349 25.22C28.8832 25.237 29.1636 25.6023 29.2315 26.1545C29.24 26.231 29.2315 26.3074 29.2315 26.3754Z" fill="#D2312F"/>
</svg>
