<svg width="57" height="65" viewBox="0 0 57 65" fill="none" xmlns="http://www.w3.org/2000/svg">
<path d="M0.00552628 32.0409C0.00552628 27.7083 -0.00293584 23.3842 0.00552628 19.0516C0.0139884 16.7583 1.02098 15.0151 3.00112 13.8643C10.5239 9.50629 18.0552 5.13983 25.6034 0.81569C27.4651 -0.250537 29.4452 -0.284385 31.3238 0.790304C37.8397 4.51364 44.3301 8.27928 50.8205 12.0365C51.9291 12.6796 53.0545 13.2889 54.1462 13.9658C55.7793 14.9728 56.7186 16.4368 56.9471 18.3577C56.9979 18.7638 56.9979 19.17 56.9979 19.5762C56.9979 28.0637 57.0064 36.5597 56.9894 45.0472C56.9894 47.2896 56.0247 49.0582 54.0785 50.2006C49.8982 52.6462 45.6925 55.0494 41.5037 57.4696C38.212 59.3735 34.9202 61.2691 31.6285 63.173C29.5468 64.3747 27.4566 64.3831 25.375 63.19C19.1045 59.5766 12.8426 55.9548 6.58059 52.3331C5.33666 51.6138 4.0758 50.9284 2.85726 50.1752C1.01252 49.0328 0.0224505 47.3658 0.0139884 45.1995C-0.011398 40.8077 0.00552628 36.4243 0.00552628 32.0409ZM1.50332 44.6156C1.42716 44.6579 1.44409 44.6833 1.52025 44.7002C1.53717 44.751 1.56256 44.8018 1.57102 44.861C1.82488 46.8665 2.82341 48.3813 4.57507 49.3967C11.3955 53.3401 18.2329 57.2665 25.0449 61.2437C27.3551 62.5891 29.5891 62.6399 31.8992 61.2606C34.5479 59.6866 37.2304 58.1719 39.9044 56.6318C44.1355 54.1863 48.375 51.7661 52.5807 49.2867C54.4846 48.1612 55.4493 46.4011 55.4578 44.201C55.4832 36.1112 55.4832 28.0129 55.4578 19.9232C55.4493 17.7061 54.4593 15.9375 52.5299 14.8205C45.5063 10.7418 38.4743 6.67994 31.4254 2.63505C29.4875 1.52651 27.4651 1.53497 25.5442 2.64351C18.7237 6.52762 11.9286 10.4794 5.12511 14.3974C4.28736 14.8797 3.49192 15.3875 2.86572 16.1406C2.07875 17.0968 1.69795 18.2053 1.51178 19.407C1.43562 19.4239 1.4187 19.4493 1.49486 19.4916C1.50332 19.6185 1.52025 19.7454 1.52025 19.8724C1.52025 27.996 1.52025 36.1112 1.52025 44.2348C1.52871 44.3617 1.51178 44.4887 1.50332 44.6156Z" fill="#61459B"/>
<path d="M1.51985 19.4154C1.70602 18.2138 2.08682 17.1052 2.87379 16.149C3.49153 15.3959 4.29543 14.8797 5.13318 14.4058C11.9283 10.4794 18.7233 6.52759 25.5438 2.62656C27.4732 1.52648 29.4956 1.50956 31.425 2.61809C38.4739 6.65452 45.5059 10.7163 52.5295 14.8035C54.4589 15.9205 55.4489 17.6891 55.4574 19.9062C55.4912 27.996 55.4828 36.0942 55.4574 44.184C55.4489 46.3842 54.4927 48.1443 52.5803 49.2697C48.3746 51.7491 44.1266 54.1693 39.904 56.6149C37.2385 58.155 34.5475 59.6697 31.8989 61.2436C29.5887 62.6145 27.3547 62.5722 25.0445 61.2267C18.2325 57.258 11.3951 53.3316 4.57468 49.3798C2.82302 48.3643 1.82449 46.8496 1.57063 44.8441C1.56216 44.7933 1.53678 44.7425 1.51985 44.6833C1.51139 44.6579 1.51139 44.624 1.50293 44.5987C1.51139 44.4717 1.52832 44.3448 1.52832 44.2179C1.52832 36.0942 1.52832 27.9791 1.52832 19.8554C1.52832 19.7285 1.51139 19.6016 1.50293 19.4746C1.51139 19.4662 1.51139 19.4408 1.51985 19.4154ZM2.63685 32.0324C2.63685 36.0519 2.63685 40.0714 2.63685 44.0909C2.63685 46.0118 3.48307 47.4842 5.14164 48.4405C12.1229 52.4854 19.1041 56.5218 26.0938 60.5413C27.6593 61.4383 29.3094 61.4383 30.8834 60.5413C33.8451 58.8573 36.79 57.1395 39.7348 55.4386C43.7797 53.1031 47.833 50.776 51.8695 48.4235C53.528 47.4589 54.3489 45.9695 54.3573 44.0571C54.3658 36.0604 54.3658 28.0637 54.3573 20.067C54.3573 18.1376 53.5026 16.6567 51.8271 15.6836C44.8797 11.6556 37.9323 7.65305 30.9765 3.64201C29.3179 2.68579 27.6509 2.69425 26.0008 3.63355C23.496 5.06365 20.9996 6.51913 18.5033 7.95769C13.993 10.564 9.47424 13.1534 4.98086 15.7851C3.43229 16.6906 2.64532 18.1207 2.63685 19.9231C2.61993 23.968 2.63685 27.996 2.63685 32.0324Z" fill="#FBFAFC"/>
<path d="M1.52038 19.4154C1.51192 19.4408 1.51192 19.4746 1.50346 19.5C1.4273 19.4577 1.44422 19.4239 1.52038 19.4154Z" fill="#533591"/>
<path d="M1.50346 44.6156C1.51192 44.641 1.51192 44.6748 1.52038 44.7002C1.44422 44.6833 1.4273 44.6579 1.50346 44.6156Z" fill="#533591"/>
<path d="M2.63755 32.0324C2.63755 27.996 2.62909 23.968 2.64601 19.9316C2.65447 18.1292 3.44145 16.6991 4.99002 15.7936C9.4834 13.1619 14.0022 10.5725 18.5125 7.96615C21.0088 6.51913 23.5051 5.07211 26.0099 3.64201C27.66 2.70272 29.3271 2.69425 30.9856 3.65047C37.933 7.66152 44.8889 11.6641 51.8363 15.6836C53.5118 16.6567 54.3665 18.1376 54.3665 20.067C54.3834 28.0637 54.3749 36.0604 54.3665 44.0571C54.3665 45.9695 53.5372 47.4589 51.8786 48.4235C47.8422 50.776 43.7888 53.1031 39.7439 55.4386C36.7907 57.1395 33.8543 58.8573 30.8926 60.5413C29.3101 61.4383 27.6685 61.4467 26.103 60.5413C19.1048 56.5218 12.1236 52.4854 5.1508 48.4405C3.48376 47.4758 2.63755 46.0118 2.63755 44.0909C2.62909 40.0714 2.63755 36.0519 2.63755 32.0324ZM24.1313 45.538C24.7491 44.7848 25.4514 44.1756 26.0945 43.507C26.1876 43.414 26.3061 43.4478 26.4076 43.4309C27.0338 43.3293 27.6685 43.3717 28.2947 43.2955C33.1943 42.7285 36.7991 38.599 37.1545 34.3087C37.3153 32.3371 37.1122 30.4331 36.1898 28.6476C36.0291 28.3345 35.8683 28.0214 35.5806 27.7929C35.4706 27.7083 35.3521 27.666 35.2336 27.7421C35.0982 27.8267 35.0475 27.9452 35.1067 28.106C35.1913 28.3429 35.2421 28.5968 35.3606 28.8168C36.2999 30.5939 36.613 32.5148 36.3168 34.461C35.7667 38.1421 33.6597 40.6469 30.2071 42.0093C28.9547 42.5001 27.6262 42.5593 26.2976 42.5508C26.0861 42.5508 25.8999 42.5593 25.7222 42.7285C24.9183 43.524 24.0975 44.294 23.2936 45.081C22.5828 45.7834 22.6505 46.0372 23.6405 46.2826C26.3653 46.9427 29.0647 46.8073 31.7049 45.8764C34.4551 44.9033 36.5876 43.1178 38.2292 40.7399C39.6339 38.6921 40.4717 36.4327 40.514 33.9195C40.5224 33.1325 40.4886 32.3455 40.4294 31.5585C40.2771 29.5446 39.5408 27.7337 38.5254 26.0243C38.4238 25.8551 38.3138 25.6943 38.1361 25.5843C37.9838 25.4912 37.84 25.4997 37.6961 25.5843C37.5099 25.6943 37.6284 25.8297 37.6707 25.9566C37.8484 26.4728 38.0938 26.9721 38.3392 27.4629C39.6001 29.9338 40.0232 32.5401 39.5578 35.2819C39.0416 38.3282 37.603 40.8669 35.2421 42.8555C32.695 45.0048 29.7417 45.9865 26.4161 45.8257C25.6714 45.7918 24.9183 45.758 24.1313 45.538ZM38.8046 21.3532C38.7708 20.6847 38.7454 20.0754 38.72 19.4577C38.7116 19.1785 38.5677 19.06 38.2885 19.06C37.9669 19.06 38.0684 19.2885 38.06 19.4492C38.043 20.1431 38.043 20.8286 38.0261 21.5225C38.0092 22.081 37.9161 22.6056 37.2899 22.8933C37.273 22.6733 37.2476 22.4956 37.2392 22.3179C37.2138 21.8863 37.2053 21.4463 37.1799 21.0147C37.163 20.7863 37.1038 20.6255 36.7991 20.6339C36.4776 20.6424 36.5199 20.8286 36.5199 21.0232C36.5114 21.844 36.4945 22.6564 36.4945 23.4772C36.4945 23.7226 36.4183 23.8919 36.2491 24.0696C34.7851 25.5166 33.3297 26.9721 31.8826 28.436C31.7049 28.6222 31.5526 28.6814 31.2987 28.5714C30.9264 28.4106 30.5287 28.3175 30.114 28.3091C29.0647 28.2922 28.1508 28.6391 27.3639 29.3161C27.1354 29.5107 26.9661 29.5276 26.7546 29.3245C26.5176 29.1045 26.2469 28.9268 25.9591 28.7745C24.4275 27.9621 22.4474 28.2837 21.4404 29.5107C20.2895 30.9239 20.2811 32.7855 21.4911 34.1733C22.532 35.375 23.6828 36.4835 24.8421 37.5751C25.0537 37.7782 25.2991 37.9474 25.536 38.1251C25.663 38.2182 25.8068 38.2098 25.9253 38.0998C26.0353 37.9897 25.9845 37.8544 25.9168 37.7528C25.8153 37.5836 25.6968 37.4228 25.5699 37.2789C24.6391 36.1873 23.5559 35.2311 22.5912 34.1649C22.1935 33.7248 21.7365 33.3271 21.5504 32.7432C21.195 31.6516 21.5165 30.4077 22.5997 29.6546C23.649 28.9353 24.986 28.9522 25.8999 29.7223C26.0861 29.8746 26.2638 30.0354 26.4584 30.1792C26.8307 30.45 27.2115 30.4754 27.6008 30.2131C27.7616 30.1031 27.9224 29.9846 28.0662 29.8577C28.7516 29.2315 29.564 29.0538 30.461 29.2061C30.5795 29.223 30.7572 29.1807 30.8079 29.2907C30.8756 29.4345 30.7064 29.5361 30.6133 29.6292C29.6825 30.5939 28.7516 31.5501 27.8208 32.5148C27.4739 32.8786 27.1438 33.2679 26.8138 33.6487C26.7038 33.7756 26.6107 33.9364 26.7377 34.0633C26.8731 34.1987 27.0677 34.2072 27.2369 34.0633C27.3215 33.9872 27.4146 33.9195 27.4993 33.8518C28.4639 33.0056 29.3694 32.1001 30.2833 31.2031C32.4665 29.0622 34.5397 26.8198 36.7653 24.7127C36.943 24.5434 37.1122 24.4334 37.383 24.425C38.2377 24.3827 39.1008 24.4504 39.9555 24.3573C40.1078 24.3404 40.2771 24.3911 40.2601 24.1373C40.2517 23.9511 40.2686 23.7565 39.9978 23.7395C39.8455 23.7311 39.6932 23.7057 39.5408 23.6888C39.0247 23.6211 38.4915 23.7226 37.9669 23.5534C38.2885 23.088 38.6608 22.8341 39.2362 22.8595C39.9809 22.8849 40.7255 22.8341 41.4702 22.8172C41.6225 22.8172 41.8002 22.8595 41.7918 22.6141C41.7833 22.4279 41.8087 22.2333 41.5379 22.2079C41.4025 22.1994 41.2587 22.1656 41.1233 22.1571C40.5901 22.1064 40.0401 22.1571 39.4985 22.0387C39.8032 21.5309 40.2263 21.2771 40.8186 21.3278C41.1571 21.3617 41.4956 21.3448 41.8341 21.3278C42.2403 21.3109 42.6464 21.2686 43.0526 21.2348C43.2303 21.2178 43.3488 21.1417 43.3573 20.9555C43.3742 20.7693 43.2557 20.6763 43.1034 20.6086C42.8918 20.5155 42.6718 20.4901 42.4434 20.4901C42.0033 20.4901 41.5548 20.4901 41.1148 20.4901C41.0979 20.4478 41.081 20.397 41.0556 20.3547C41.2163 20.2108 41.3941 20.067 41.5464 19.9147C41.8172 19.627 42.0795 19.3392 42.3418 19.0346C42.5026 18.8484 42.5026 18.6538 42.3249 18.4676C42.1303 18.2476 41.961 18.3999 41.8172 18.5269C41.411 18.8992 41.0217 19.28 40.6155 19.6608C40.5563 19.72 40.5055 19.8047 40.404 19.7877C40.2601 19.7539 40.3194 19.627 40.3109 19.5423C40.2855 19.0261 40.2855 18.5015 40.2601 17.9853C40.2432 17.7399 40.1755 17.486 39.8624 17.4945C39.5493 17.503 39.6001 17.7822 39.5747 17.9684C39.4816 18.6877 39.5408 19.4069 39.5324 20.1262C39.5578 20.6255 39.4139 21.074 38.8046 21.3532ZM17.717 33.0225C17.717 32.7517 17.6917 32.4809 17.717 32.2186C17.9878 29.9 18.944 27.9198 20.6619 26.312C22.4728 24.6281 24.6306 23.8326 27.0677 23.8157C28.8701 23.8072 30.571 24.2727 32.1111 25.2627C32.2634 25.3643 32.4157 25.4658 32.6019 25.4997C32.7627 25.5335 32.9235 25.5335 33.0081 25.3727C33.0927 25.2119 33.0927 25.0342 32.9573 24.9073C32.7881 24.755 32.6104 24.6111 32.4242 24.5011C29.5725 22.8087 26.5684 22.5379 23.4544 23.638C19.291 25.1104 16.2531 29.6123 16.947 34.4526C17.514 38.4044 19.6803 41.1123 23.3105 42.6862C23.6913 42.8555 23.9621 42.7878 24.2498 42.5085C25.2653 41.5184 26.3146 40.5538 27.3215 39.5468C28.9463 37.9221 30.5541 36.2804 32.145 34.6303C32.6696 34.0887 33.2112 33.5387 33.4058 32.7602C33.592 32.024 33.5158 31.3047 33.2366 30.6108C33.1435 30.3738 33.0081 30.0523 32.6696 30.1877C32.348 30.3146 32.4073 30.6108 32.4919 30.8816C32.5088 30.9493 32.5342 31.017 32.5511 31.0847C32.8473 32.0917 32.6527 32.9632 31.8911 33.7079C31.5103 34.0802 31.1464 34.478 30.7741 34.8588C28.5401 37.2112 26.2299 39.4791 23.9452 41.7808C23.8013 41.9246 23.6828 41.9416 23.4967 41.8739C22.2612 41.4 21.2034 40.6553 20.298 39.716C18.5379 37.8544 17.6493 35.6119 17.717 33.0225ZM27.0677 19.6354C26.4669 19.6439 25.7645 19.6862 25.0706 19.8131C20.5434 20.6001 17.1839 23.0118 14.9922 27.0482C13.6129 29.5869 13.3337 32.3201 13.7145 35.0872C14.3491 39.7076 16.9216 43.0332 20.9834 45.2587C21.068 45.3095 21.1611 45.3349 21.2542 45.3603C21.4488 45.4279 21.5927 45.3349 21.6773 45.1741C21.7535 45.0302 21.7535 44.8779 21.6265 44.7425C21.4911 44.5902 21.3219 44.4887 21.1442 44.404C19.6803 43.6848 18.4702 42.6354 17.4124 41.4084C14.9584 38.5567 14.0276 35.2142 14.4507 31.5247C14.7892 28.5968 16.1092 26.1174 18.2248 24.0611C21.2796 21.0994 24.9606 20.1093 29.0986 20.6424C30.9349 20.8793 32.6104 21.6325 34.1674 22.6479C34.4128 22.8087 34.6751 22.9441 34.9375 23.088C35.0813 23.1641 35.2082 23.1303 35.3182 23.0033C35.4283 22.8764 35.4198 22.7495 35.3521 22.6141C35.2421 22.3856 35.0475 22.2417 34.8528 22.1148C32.5173 20.6086 29.9871 19.6608 27.0677 19.6354Z" fill="#60449B"/>
<path d="M24.1307 45.538C24.9177 45.7664 25.6708 45.7918 26.4239 45.8257C29.7495 45.9865 32.7028 45.0049 35.2499 42.8555C37.6109 40.8584 39.0409 38.3282 39.5656 35.2819C40.031 32.5402 39.6079 29.9338 38.3471 27.4629C38.1017 26.9721 37.8563 26.4813 37.6785 25.9566C37.6362 25.8297 37.5262 25.6943 37.7039 25.5843C37.8478 25.4997 37.9916 25.4828 38.144 25.5843C38.3217 25.6943 38.4317 25.8551 38.5332 26.0243C39.5487 27.7337 40.2849 29.5446 40.4372 31.5586C40.4964 32.3455 40.5303 33.1325 40.5218 33.9195C40.488 36.4327 39.6502 38.6921 38.237 40.74C36.6039 43.1263 34.4629 44.9118 31.7128 45.8765C29.0726 46.8073 26.3732 46.9427 23.6484 46.2826C22.6498 46.0372 22.5821 45.7834 23.3014 45.081C24.1053 44.294 24.9261 43.524 25.73 42.7285C25.9077 42.5508 26.0939 42.5424 26.3055 42.5508C27.634 42.5593 28.9541 42.5001 30.215 42.0093C33.676 40.6469 35.7746 38.1421 36.3246 34.4611C36.6208 32.5063 36.3077 30.5939 35.3684 28.8168C35.2499 28.5968 35.1991 28.343 35.1145 28.106C35.0553 27.9452 35.1145 27.8268 35.2415 27.7421C35.3684 27.666 35.4869 27.7083 35.5884 27.7929C35.8677 28.0214 36.0284 28.3345 36.1977 28.6476C37.1285 30.4331 37.3316 32.3455 37.1624 34.3087C36.8069 38.6075 33.2021 42.737 28.3025 43.2955C27.6763 43.3717 27.0417 43.3294 26.4155 43.4309C26.3055 43.4478 26.187 43.414 26.1024 43.5071C25.4508 44.1671 24.7569 44.7848 24.1307 45.538Z" fill="#FAF9FB"/>
<path d="M38.8042 21.3533C39.4134 21.074 39.5573 20.6255 39.5573 20.084C39.5658 19.3647 39.5065 18.6454 39.5996 17.9261C39.625 17.74 39.5742 17.4607 39.8873 17.4522C40.2089 17.4438 40.2766 17.6892 40.285 17.943C40.3104 18.4592 40.3189 18.9839 40.3358 19.5001C40.3358 19.5847 40.285 19.7116 40.4289 19.7455C40.522 19.7624 40.5812 19.6778 40.6404 19.6185C41.0382 19.2377 41.4359 18.857 41.8421 18.4846C41.9859 18.3577 42.1467 18.2054 42.3498 18.4254C42.519 18.6115 42.519 18.8062 42.3667 18.9923C42.1129 19.2885 41.8505 19.5847 41.5713 19.8724C41.419 20.0332 41.2413 20.1686 41.0805 20.3124C41.0974 20.3547 41.1143 20.4055 41.1397 20.4478C41.5797 20.4478 42.0282 20.4478 42.4683 20.4478C42.6967 20.4478 42.9168 20.4732 43.1283 20.5663C43.2806 20.634 43.3906 20.7271 43.3822 20.9132C43.3653 21.0994 43.2468 21.184 43.0775 21.1925C42.6714 21.2263 42.2652 21.2602 41.859 21.2856C41.5205 21.3025 41.182 21.311 40.8435 21.2856C40.2427 21.2348 39.8281 21.4887 39.5234 21.9964C40.065 22.1233 40.6066 22.0641 41.1482 22.1149C41.2836 22.1318 41.4274 22.1572 41.5628 22.1656C41.8336 22.191 41.8082 22.3857 41.8167 22.5718C41.8251 22.8257 41.6474 22.7749 41.4951 22.7749C40.7505 22.7918 40.0058 22.8426 39.2611 22.8172C38.6857 22.7918 38.3134 23.0542 37.9918 23.5111C38.508 23.6719 39.0411 23.5788 39.5658 23.6465C39.7181 23.6634 39.8704 23.6888 40.0227 23.6973C40.285 23.7142 40.2766 23.9004 40.285 24.095C40.302 24.3489 40.1243 24.2981 39.9804 24.315C39.1257 24.4166 38.2626 24.3404 37.4079 24.3827C37.1371 24.3996 36.9763 24.5012 36.7902 24.6704C34.5646 26.769 32.4914 29.02 30.3082 31.1609C29.3943 32.0579 28.4888 32.9718 27.5242 33.8095C27.4395 33.8857 27.3465 33.9534 27.2618 34.0211C27.0926 34.1649 26.898 34.1565 26.7626 34.0211C26.6356 33.8941 26.7287 33.7334 26.8387 33.6064C27.1772 33.2256 27.4988 32.8364 27.8457 32.4725C28.7681 31.5078 29.7074 30.5516 30.6382 29.5869C30.7313 29.4938 30.9005 29.3923 30.8329 29.2484C30.7821 29.1384 30.6044 29.1807 30.4859 29.1638C29.5889 29.0115 28.785 29.1892 28.0911 29.8154C27.9473 29.9508 27.7865 30.0608 27.6257 30.1708C27.2449 30.4331 26.8557 30.4077 26.4833 30.137C26.2887 29.9931 26.111 29.8408 25.9248 29.68C25.0109 28.9099 23.6739 28.893 22.6246 29.6123C21.5414 30.357 21.2199 31.6094 21.5753 32.701C21.7615 33.2764 22.2184 33.6826 22.6161 34.1226C23.5808 35.1888 24.6555 36.1451 25.5948 37.2367C25.7217 37.389 25.8402 37.5498 25.9417 37.7106C26.0094 37.8206 26.0602 37.9475 25.9502 38.0575C25.8402 38.176 25.6879 38.176 25.561 38.0829C25.324 37.9052 25.0786 37.7359 24.8671 37.5328C23.6824 36.4751 22.5315 35.375 21.4907 34.1649C20.2891 32.7687 20.2891 30.9155 21.4399 29.5023C22.4384 28.2753 24.4186 27.9453 25.9587 28.7661C26.2464 28.9184 26.5172 29.0961 26.7541 29.3161C26.9657 29.5192 27.1349 29.5023 27.3634 29.3077C28.1504 28.6307 29.0643 28.2753 30.1136 28.3007C30.5282 28.3091 30.9259 28.4022 31.2983 28.563C31.5521 28.673 31.7044 28.6053 31.8822 28.4276C33.3292 26.9637 34.7847 25.5082 36.2486 24.0612C36.4178 23.8919 36.5025 23.7142 36.494 23.4688C36.4855 22.648 36.5109 21.8356 36.5194 21.0148C36.5194 20.8202 36.4771 20.634 36.7986 20.6255C37.1033 20.6171 37.1625 20.7779 37.1794 21.0063C37.2048 21.4379 37.2133 21.8779 37.2387 22.3095C37.2471 22.4872 37.2725 22.6649 37.2894 22.8849C37.9156 22.5972 38.0087 22.0726 38.0257 21.5141C38.0426 20.8202 38.0426 20.1347 38.0595 19.4408C38.0595 19.2801 37.9664 19.0516 38.288 19.0516C38.5672 19.0516 38.7111 19.17 38.7195 19.4493C38.7449 20.0755 38.7703 20.6848 38.8042 21.3533Z" fill="#F9F8FB"/>
<path d="M17.7167 33.0225C17.649 35.6119 18.529 37.8544 20.323 39.716C21.2285 40.6553 22.2862 41.4 23.5217 41.8739C23.7079 41.9416 23.8263 41.9247 23.9702 41.7808C26.255 39.4791 28.5651 37.2028 30.7991 34.8588C31.1715 34.4695 31.5353 34.0803 31.9161 33.7079C32.6777 32.9633 32.8639 32.0832 32.5762 31.0847C32.5592 31.017 32.5338 30.9493 32.5169 30.8816C32.4323 30.6108 32.3646 30.3146 32.6946 30.1877C33.0416 30.0608 33.1685 30.3739 33.2616 30.6108C33.5408 31.3047 33.617 32.024 33.4308 32.7602C33.2362 33.5302 32.6946 34.0803 32.17 34.6303C30.5706 36.2804 28.9713 37.9221 27.3466 39.5468C26.3396 40.5538 25.2903 41.51 24.2748 42.5085C23.9871 42.7878 23.7248 42.8555 23.3355 42.6863C19.6968 41.1038 17.5305 38.4044 16.972 34.4526C16.2781 29.6207 19.316 25.1104 23.4794 23.638C26.5934 22.538 29.5975 22.8087 32.4492 24.5012C32.6439 24.6112 32.8216 24.7635 32.9823 24.9073C33.1262 25.0343 33.1177 25.2204 33.0331 25.3728C32.9485 25.5335 32.7877 25.5335 32.6269 25.4997C32.4408 25.4574 32.2884 25.3558 32.1361 25.2628C30.596 24.2727 28.8951 23.8073 27.0927 23.8157C24.6556 23.8327 22.4893 24.6281 20.6869 26.3121C18.9691 27.9199 18.0129 29.9 17.7421 32.2186C17.6913 32.4809 17.7167 32.7517 17.7167 33.0225Z" fill="#FAF9FB"/>
<path d="M27.067 19.6354C29.9864 19.6608 32.5081 20.6086 34.8521 22.1148C35.0552 22.2418 35.2414 22.3941 35.3514 22.6141C35.4191 22.7495 35.4275 22.8764 35.3175 23.0034C35.2075 23.1303 35.0806 23.1557 34.9367 23.088C34.6744 22.9526 34.4121 22.8087 34.1667 22.648C32.6181 21.6325 30.9426 20.8794 29.0979 20.6424C24.9599 20.1093 21.2789 21.0994 18.2241 24.0611C16.1085 26.1174 14.7884 28.5968 14.45 31.5247C14.0269 35.2142 14.9492 38.5567 17.4117 41.4085C18.4695 42.6355 19.6711 43.6848 21.1435 44.4041C21.3212 44.4887 21.4904 44.5902 21.6258 44.7425C21.7443 44.8779 21.7528 45.0303 21.6766 45.1741C21.592 45.3349 21.4481 45.428 21.2535 45.3603C21.1604 45.3264 21.0673 45.301 20.9827 45.2587C16.9209 43.0332 14.3484 39.7076 13.7138 35.0873C13.333 32.3202 13.6207 29.5784 14.9915 27.0483C17.1832 23.0034 20.5427 20.6001 25.0699 19.8131C25.7638 19.6947 26.4662 19.6524 27.067 19.6354Z" fill="#F9F8FB"/>
</svg>
