<svg width="155" height="36" viewBox="0 0 155 36" fill="none" xmlns="http://www.w3.org/2000/svg">
<path d="M19.78 25.5734L17.7985 21.5219H6.63463L4.6177 25.5734H0L12.2608 0.644897L24.3977 25.5734H19.78ZM15.7639 17.3465L12.2431 10.1103L8.66924 17.3465H15.7639Z" fill="#C60000"/>
<path d="M36.9238 25.4495C35.7915 26.0864 34.5 26.4757 33.0492 26.4757C28.3962 26.4757 24.61 22.7603 24.61 18.0895C24.61 13.401 28.3962 9.65027 33.0492 9.65027C34.5177 9.65027 35.7562 9.89797 36.9769 10.5526H41.0639V26.0157C41.0639 31.1818 36.8531 35.4811 31.6869 35.4811C29.1569 35.4811 26.8215 34.5257 25.0523 32.7565L27.9715 29.8195C28.9269 30.8457 30.2892 31.3765 31.6869 31.3765C34.5354 31.3765 36.9062 28.9172 36.9062 26.0334V25.4495H36.9238ZM28.75 18.0895C28.75 20.4957 30.6962 22.4064 33.0492 22.4064C35.6854 22.4064 37.0477 20.1595 37.0477 18.0895C37.0477 15.9841 35.7031 13.7903 33.0492 13.7903C30.7139 13.808 28.75 15.7187 28.75 18.0895Z" fill="#C60000"/>
<path d="M55.607 25.5734C54.4747 26.2103 53.2008 26.4757 51.7677 26.4757C47.1501 26.4757 43.3639 22.7249 43.3639 18.0718C43.3639 13.4187 47.1501 9.66797 51.7677 9.66797C53.2008 9.66797 54.4747 9.93335 55.607 10.5703H59.747V25.5911H55.607V25.5734ZM47.5039 18.0718C47.5039 20.4426 49.4324 22.3711 51.7677 22.3711C54.3862 22.3711 55.7308 20.1418 55.7308 18.0718C55.7308 16.0018 54.3862 13.7726 51.7677 13.7726C49.4324 13.7726 47.5039 15.7011 47.5039 18.0718Z" fill="#C60000"/>
<path d="M66.7356 10.5526C67.974 9.91566 69.1594 9.65027 70.6102 9.65027C75.2633 9.65027 79.0848 13.4364 79.0848 18.1249C79.0848 22.778 75.2633 26.4757 70.6102 26.4757C69.1771 26.4757 67.8856 26.1749 66.7356 25.5203V35.4988H62.5956V10.5526H66.7356ZM66.6117 18.1249C66.6117 20.1595 67.9917 22.3534 70.6102 22.3534C73.0164 22.3534 74.9271 20.4957 74.9271 18.1249C74.9271 15.7187 72.9987 13.808 70.6102 13.808C67.9917 13.808 66.6117 16.0195 66.6117 18.1249Z" fill="#C60000"/>
<path d="M95.0609 23.9457C93.6809 25.5026 91.7524 26.4757 89.4701 26.4757C84.8524 26.4757 81.084 22.7249 81.084 18.0895C81.084 13.4718 84.8347 9.65027 89.4701 9.65027C94.0878 9.65027 97.3609 13.4718 97.3609 18.0895C97.3609 18.5141 97.3079 19.3457 97.184 19.8587H85.7371C86.3032 21.1503 87.8778 22.3534 89.4524 22.3534C90.1955 22.3534 90.7971 22.1764 91.3455 21.8403L95.0609 23.9457ZM92.8317 16.3557C92.354 14.7987 91.1155 13.7726 89.4701 13.7726C87.6124 13.7726 86.2855 14.6749 85.7194 16.3557H92.8317Z" fill="#C60000"/>
<path d="M118.309 25.5734L115.938 20.2657H101.855L99.4486 25.5734H97.6086L108.896 0.644897L120.131 25.5734H118.309ZM115.195 18.6026L108.914 4.69644L102.616 18.6026H115.195Z" fill="#C60000"/>
<path d="M134.409 24.0164C132.905 25.5557 130.782 26.4757 128.464 26.4757C123.811 26.4757 120.06 22.7249 120.06 18.0718C120.06 13.4187 123.811 9.66797 128.464 9.66797C130.782 9.66797 132.905 10.6057 134.409 12.1272L133.241 13.2949C132.038 12.0564 130.322 11.3134 128.464 11.3134C124.749 11.3134 121.706 14.3387 121.706 18.0718C121.706 21.7872 124.731 24.8303 128.464 24.8303C130.322 24.8303 132.038 24.0872 133.241 22.8488L134.409 24.0164Z" fill="#C60000"/>
<path d="M143.591 10.5526V12.2157H140.053V25.5734H138.372V12.2157H136.054V10.5526H138.372V1.54721H140.053V10.5526H143.591Z" fill="#C60000"/>
<path d="M146.369 21.4687C146.581 23.4149 148.103 24.8303 149.907 24.8303C151.765 24.8303 153.304 23.2911 153.304 21.4334C153.304 20.7964 153.127 20.1772 152.756 19.5934C152.207 18.7441 151.429 18.5141 149.695 18.0364C148.262 17.6118 147.147 17.311 146.369 16.108C145.944 15.4534 145.714 14.6395 145.714 13.8257C145.714 11.5434 147.607 9.65027 149.925 9.65027C151.995 9.65027 153.711 11.1541 154.047 13.1003L152.42 13.4364C152.243 12.2334 151.181 11.2957 149.925 11.2957C148.51 11.2957 147.377 12.428 147.377 13.8257C147.377 14.3387 147.519 14.781 147.802 15.2057C148.191 15.8426 148.828 16.0549 150.137 16.4441C151.995 16.9572 153.287 17.3464 154.153 18.7264C154.667 19.5403 154.967 20.4603 154.967 21.4334C154.967 24.2288 152.685 26.4757 149.925 26.4757C147.306 26.4757 145.113 24.5295 144.759 21.8226L146.369 21.4687Z" fill="#C60000"/>
</svg>
