<svg width="28" height="25" viewBox="0 0 28 25" fill="none" xmlns="http://www.w3.org/2000/svg">
<path fill-rule="evenodd" clip-rule="evenodd" d="M6.60681 0.0958756C5.91586 0.27166 5.24784 0.799121 4.94003 1.41194C4.63802 2.01325 4.64371 1.8662 4.64584 9.06197C4.64693 12.7128 4.66745 15.8816 4.69141 16.1036C4.73068 16.468 4.76203 16.5465 5.01218 16.9079C5.47163 17.5715 6.02653 17.9775 6.67207 18.1225C6.82885 18.1578 10.1871 18.177 16.3562 18.1778C25.6622 18.1791 25.8054 18.1776 26.1561 18.072C26.8196 17.8722 27.3889 17.4046 27.6974 16.806C28.0124 16.1946 27.9999 16.5157 27.9999 9.08862C27.9999 1.57584 28.017 1.97059 27.6634 1.32418C27.4592 0.950647 26.9749 0.487593 26.5893 0.297146C25.9498 -0.0186484 26.5235 -0.00212028 16.3231 0.00123867C7.66109 0.00406445 6.94011 0.0111022 6.60681 0.0958756ZM25.7204 1.777C25.9497 1.87036 26.1816 2.13961 26.2218 2.35895C26.2391 2.45343 26.2462 4.5613 26.2376 7.04324L26.222 11.5557L24.116 9.15836C22.9577 7.83979 21.8922 6.65318 21.7483 6.52148C21.3403 6.148 21.0687 6.04942 20.4509 6.05054C20.0082 6.05134 19.8864 6.07192 19.6279 6.18922C19.461 6.26498 19.2288 6.40851 19.1119 6.50816C18.9949 6.60786 17.9188 7.83505 16.7205 9.23525C15.5221 10.6355 14.5232 11.7811 14.5006 11.7811C14.4781 11.7811 14.0924 11.4225 13.6434 10.9842C12.626 9.99096 12.4367 9.88736 11.6439 9.89029C10.7704 9.89349 10.8065 9.8679 8.42916 12.1744L6.39057 14.1523L6.40518 8.23487C6.41962 2.37292 6.42082 2.31566 6.53225 2.13086C6.59406 2.02823 6.74176 1.89067 6.86047 1.82515L7.07621 1.70604L16.309 1.70513C23.9846 1.70444 25.5719 1.71654 25.7204 1.777ZM9.90711 3.49278C9.46895 3.60779 9.18964 3.76784 8.85283 4.09686C7.95801 4.97098 7.93646 6.32826 8.80316 7.22148C9.28143 7.71439 9.81647 7.94232 10.4951 7.94232C11.1693 7.94232 11.7091 7.71407 12.1781 7.23076C12.5189 6.87956 12.6687 6.59794 12.7722 6.11431C13.1168 4.50319 11.5433 3.06337 9.90711 3.49278ZM10.7756 5.20003C11.2827 5.45563 11.075 6.23619 10.4999 6.23619C9.92954 6.23619 9.70422 5.5057 10.1862 5.21923C10.3953 5.09495 10.5567 5.08972 10.7756 5.20003ZM20.6362 7.84901C20.7114 7.91502 22.0061 9.37254 23.5133 11.088L26.2538 14.207L26.2379 15.0697C26.2203 16.0254 26.1961 16.0984 25.8123 16.353L25.6315 16.473H16.3374C8.11359 16.473 7.02485 16.4636 6.88202 16.3916C6.79329 16.3469 6.72065 16.2928 6.72065 16.2714C6.72065 16.2064 11.4431 11.6369 11.5805 11.5689C11.7016 11.509 11.7736 11.5684 12.8936 12.6527C13.5453 13.2836 14.1477 13.8254 14.2323 13.8568C14.4502 13.9376 14.795 13.9274 14.9787 13.8348C15.0652 13.7912 16.2889 12.4063 17.7111 10.7425C19.4959 8.65442 20.3195 7.72905 20.3932 7.72905C20.4517 7.72905 20.5611 7.78301 20.6362 7.84901ZM2.45124 9.18209C2.35064 9.2482 2.22531 9.37414 2.17275 9.462C2.03211 9.69718 0.0390249 17.1791 0.00653173 17.5938C-0.0698328 18.5698 0.530526 19.5889 1.43394 20.0167C1.72577 20.1549 3.20367 20.5611 7.26767 21.6199C10.2613 22.3999 14.2737 23.4461 16.1842 23.9448C18.0946 24.4435 19.7922 24.8858 19.9564 24.9276C20.3024 25.0157 20.9193 25.0248 21.2652 24.9471C21.9308 24.7976 22.6917 24.2051 22.9922 23.6024C23.0808 23.4248 23.2973 22.6961 23.503 21.8834C23.8396 20.5535 23.8561 20.4597 23.7905 20.2463C23.609 19.6559 22.8864 19.4311 22.4144 19.8182C22.184 20.0072 22.1552 20.086 21.7942 21.5161C21.6233 22.1932 21.436 22.8232 21.3779 22.9162C21.2344 23.1462 20.9631 23.2971 20.6924 23.2973C20.5025 23.2974 17.7478 22.5925 9.34636 20.3936C8.51899 20.177 6.58662 19.6729 5.05222 19.2733C3.51782 18.8738 2.20086 18.5038 2.12565 18.4512C1.94332 18.3239 1.74475 17.9766 1.74361 17.7833C1.74311 17.6975 2.19813 15.9264 2.75472 13.8476C3.31132 11.7687 3.76672 9.98306 3.76672 9.87952C3.76672 9.61283 3.6194 9.34353 3.39064 9.19201C3.12588 9.01665 2.70981 9.01228 2.45124 9.18209Z" fill="#C60000"/>
</svg>
