<svg width="28" height="17" viewBox="0 0 28 17" fill="none" xmlns="http://www.w3.org/2000/svg">
<path fill-rule="evenodd" clip-rule="evenodd" d="M7.60315 0.0712164C4.10957 0.600839 1.21831 3.06832 0.299768 6.30411C0.0137738 7.31172 -0.0797505 8.69429 0.0721992 9.66836C0.472908 12.2371 1.96563 14.3966 4.30023 15.7852C4.65862 15.9983 5.49902 16.3745 5.98783 16.5406C7.55146 17.072 9.51098 17.1475 11.1742 16.7404C14.1005 16.0241 16.5038 13.8739 17.4343 11.1396C17.7498 10.2124 17.8282 9.68479 17.8566 8.29825L17.8825 7.03241L13.716 7.04644L9.54948 7.06042L9.39764 7.20495L9.24585 7.34943L9.22882 8.48284C9.21946 9.10619 9.22625 9.68985 9.24388 9.77988C9.26146 9.86991 9.34025 10.0048 9.41894 10.0798L9.56196 10.216H11.851C13.11 10.216 14.1534 10.2365 14.1696 10.2615C14.2176 10.3355 13.648 11.365 13.3679 11.7108C12.589 12.6719 11.5 13.3488 10.2241 13.6646C9.55025 13.8314 8.36816 13.835 7.68529 13.6723C4.85771 12.9987 3.03223 10.4904 3.40994 7.79768C3.71171 5.64607 5.35912 3.88482 7.56948 3.35071C9.247 2.94538 10.9443 3.28958 12.3741 4.32509C12.8052 4.63737 12.905 4.68718 13.0995 4.68718C13.3462 4.68718 13.4784 4.58459 14.7078 3.43923C15.2267 2.95576 15.2417 2.93521 15.2417 2.70707C15.2417 2.4867 15.2205 2.45316 14.8953 2.15846C13.7355 1.10741 12.0249 0.335402 10.2797 0.0754413C9.61677 -0.0233478 8.24123 -0.0254864 7.60315 0.0712164ZM22.6506 4.81299L22.497 4.93874L22.4803 6.09088L22.4637 7.24297H21.2924C20.1332 7.24297 20.1196 7.24428 19.9675 7.36883L19.8139 7.49474V8.57303V9.65131L19.9675 9.77722C20.1196 9.90178 20.1332 9.90308 21.2924 9.90308H22.4637L22.4803 11.0552L22.497 12.2073L22.6506 12.3331C22.8016 12.4567 22.8224 12.4589 23.8726 12.4589C24.5331 12.4589 24.983 12.4374 25.0514 12.4025C25.275 12.2885 25.3169 12.0588 25.3169 10.9479V9.90308H26.4704C27.192 9.90308 27.6653 9.88196 27.7344 9.84675C27.9491 9.73727 28 9.49337 28 8.57303C28 7.65268 27.9491 7.40878 27.7344 7.2993C27.6653 7.2641 27.192 7.24297 26.4704 7.24297H25.3169V6.19812C25.3169 5.08729 25.275 4.85753 25.0514 4.74351C24.983 4.70867 24.5331 4.68718 23.8726 4.68718C22.8224 4.68718 22.8016 4.68932 22.6506 4.81299Z" fill="#DB4D44"/>
</svg>
